<svg width="500" height="500" viewBox="0 0 500 500" fill="none" xmlns="http://www.w3.org/2000/svg">
<rect width="500" height="500" fill="#919191"/>
<path d="M223.432 287.984L223.176 239.344H239.56C249.459 239.344 257.224 236.699 262.856 231.408C268.659 226.117 271.56 219.035 271.56 210.16C271.56 201.285 268.659 194.203 262.856 188.912C257.053 183.621 249.203 180.976 239.304 180.976H204.488V155.12H238.536C250.995 155.12 261.661 157.424 270.536 162.032C279.581 166.469 286.579 172.784 291.528 180.976C296.477 189.168 298.952 198.896 298.952 210.16C298.952 220.229 296.819 229.189 292.552 237.04C288.456 244.891 282.653 251.12 275.144 255.728C267.805 260.165 259.101 262.555 249.032 262.896V287.984H223.432ZM232.392 343.28C227.443 343.28 223.432 341.829 220.36 338.928C217.288 335.856 215.752 331.931 215.752 327.152C215.752 322.373 217.288 318.533 220.36 315.632C223.432 312.56 227.443 311.024 232.392 311.024H240.072C245.192 311.024 249.203 312.56 252.104 315.632C255.005 318.533 256.456 322.288 256.456 326.896C256.456 331.675 254.92 335.6 251.848 338.672C248.776 341.744 244.765 343.28 239.816 343.28H232.392Z" fill="white"/>
</svg>
