<svg width="1024" height="1024" viewBox="0 0 1024 1024" fill="none" xmlns="http://www.w3.org/2000/svg">
<rect width="1024" height="1024" fill="#0284C7"/>
<path fill-rule="evenodd" clip-rule="evenodd" d="M377.7 291.85C377.7 292.282 376.887 292.36 372.43 292.36C369.143 292.36 367.16 292.488 367.16 292.7C367.16 292.905 365.743 293.04 363.59 293.04C361.437 293.04 360.02 293.175 360.02 293.38C360.02 293.578 358.887 293.72 357.3 293.72C355.109 293.72 354.58 293.819 354.58 294.23C354.58 294.643 354.033 294.74 351.69 294.74C349.99 294.74 348.8 294.88 348.8 295.08C348.8 295.278 347.667 295.42 346.08 295.42C344.493 295.42 343.36 295.562 343.36 295.76C343.36 295.947 343.054 296.1 342.68 296.1C342.103 296.1 342 296.326 342 297.601C342 300.019 342.15 300.179 344.417 300.179C345.526 300.179 346.42 300.331 346.42 300.519C346.42 300.719 347.61 300.859 349.31 300.859C351.653 300.859 352.2 300.956 352.2 301.369C352.2 301.761 352.634 301.879 354.07 301.879C355.099 301.879 355.94 302.032 355.94 302.219C355.94 302.406 356.689 302.559 357.603 302.559C358.769 302.559 359.326 302.712 359.463 303.069C359.604 303.437 360.182 303.579 361.539 303.579C362.573 303.579 363.42 303.732 363.42 303.919C363.42 304.106 364.109 304.259 364.95 304.259C365.792 304.259 366.48 304.412 366.48 304.599C366.48 304.786 367.152 304.939 367.973 304.939C368.988 304.939 369.53 305.103 369.663 305.449C369.797 305.798 370.343 305.959 371.399 305.959C372.246 305.959 372.94 306.112 372.94 306.299C372.94 306.486 373.629 306.639 374.47 306.639C375.312 306.639 376 306.792 376 306.979C376 307.166 376.519 307.319 377.153 307.319C377.866 307.319 378.383 307.514 378.503 307.829C378.616 308.123 379.125 308.339 379.709 308.339C380.265 308.339 380.814 308.491 380.93 308.678C381.046 308.865 381.667 309.018 382.31 309.018C382.954 309.018 383.48 309.171 383.48 309.358C383.48 309.545 384.169 309.698 385.01 309.698C386.143 309.698 386.54 309.831 386.54 310.208C386.54 310.564 386.899 310.718 387.73 310.718C388.385 310.718 388.92 310.871 388.92 311.058C388.92 311.245 389.456 311.398 390.11 311.398C390.765 311.398 391.3 311.551 391.3 311.738C391.3 311.925 391.836 312.078 392.49 312.078C393.321 312.078 393.68 312.232 393.68 312.588C393.68 312.905 394.001 313.098 394.53 313.098C394.998 313.098 395.38 313.251 395.38 313.438C395.38 313.625 395.899 313.778 396.533 313.778C397.246 313.778 397.763 313.974 397.883 314.288C397.997 314.586 398.507 314.798 399.109 314.798C399.676 314.798 400.14 314.951 400.14 315.138C400.14 315.325 400.523 315.478 400.99 315.478C401.458 315.478 401.84 315.631 401.84 315.818C401.84 316.005 402.376 316.158 403.03 316.158C403.861 316.158 404.22 316.312 404.22 316.668C404.22 316.985 404.541 317.178 405.07 317.178C405.538 317.178 405.92 317.331 405.92 317.518C405.92 317.705 406.456 317.858 407.11 317.858C407.765 317.858 408.3 318.011 408.3 318.198C408.3 318.385 408.59 318.538 408.943 318.538C409.298 318.538 409.675 318.767 409.783 319.048C409.897 319.346 410.407 319.558 411.009 319.558C411.576 319.558 412.04 319.711 412.04 319.898C412.04 320.085 412.423 320.237 412.89 320.237C413.358 320.237 413.74 320.39 413.74 320.577C413.74 320.764 414.123 320.917 414.59 320.917C415.119 320.917 415.44 321.11 415.44 321.427C415.44 321.744 415.761 321.937 416.29 321.937C416.758 321.937 417.14 322.09 417.14 322.277C417.14 322.464 417.676 322.617 418.33 322.617C419.161 322.617 419.52 322.771 419.52 323.127C419.52 323.41 419.823 323.637 420.2 323.637C420.574 323.637 420.88 323.79 420.88 323.977C420.88 324.164 421.263 324.317 421.73 324.317C422.198 324.317 422.58 324.47 422.58 324.657C422.58 324.844 422.946 324.997 423.393 324.997C423.841 324.997 424.295 325.227 424.403 325.507C424.51 325.788 424.91 326.017 425.289 326.017C425.669 326.017 425.98 326.17 425.98 326.357C425.98 326.544 426.286 326.697 426.66 326.697C427.034 326.697 427.34 326.85 427.34 327.037C427.34 327.224 427.723 327.377 428.19 327.377C428.719 327.377 429.04 327.57 429.04 327.887C429.04 328.204 429.361 328.397 429.89 328.397C430.358 328.397 430.74 328.55 430.74 328.737C430.74 328.924 431.046 329.077 431.42 329.077C431.794 329.077 432.1 329.23 432.1 329.417C432.1 329.604 432.483 329.757 432.95 329.757C433.479 329.757 433.8 329.95 433.8 330.267C433.8 330.571 434.113 330.777 434.575 330.777C435.001 330.777 435.571 331.083 435.84 331.457C436.109 331.831 436.679 332.136 437.105 332.136C437.567 332.136 437.88 332.342 437.88 332.646C437.88 332.963 438.201 333.156 438.73 333.156C439.198 333.156 439.58 333.309 439.58 333.496C439.58 333.683 439.87 333.836 440.223 333.836C440.578 333.836 440.955 334.066 441.063 334.346C441.17 334.627 441.536 334.856 441.874 334.856C442.212 334.856 442.711 335.162 442.98 335.536C443.249 335.91 443.803 336.216 444.209 336.216C444.615 336.216 445.035 336.446 445.143 336.726C445.25 337.007 445.616 337.236 445.954 337.236C446.292 337.236 446.791 337.542 447.06 337.916C447.329 338.29 447.899 338.596 448.325 338.596C448.787 338.596 449.1 338.802 449.1 339.106C449.1 339.41 449.413 339.616 449.875 339.616C450.301 339.616 450.871 339.922 451.14 340.296C451.409 340.67 451.979 340.976 452.405 340.976C452.832 340.976 453.18 341.14 453.18 341.34C453.18 341.89 454.079 342.676 454.71 342.676C455.341 342.676 456.24 343.461 456.24 344.011C456.24 344.211 456.586 344.375 457.009 344.375C457.433 344.375 458.065 344.757 458.417 345.225C458.768 345.693 459.306 346.075 459.613 346.075C459.919 346.075 460.391 346.381 460.66 346.755C460.929 347.129 461.499 347.435 461.925 347.435C462.352 347.435 462.7 347.599 462.7 347.8C462.7 348.27 463.565 349.135 464.035 349.135C464.236 349.135 464.4 349.288 464.4 349.475C464.4 349.662 464.632 349.815 464.916 349.815C465.2 349.815 465.952 350.35 466.588 351.005C467.223 351.659 468.062 352.195 468.452 352.195C468.841 352.195 469.16 352.359 469.16 352.559C469.16 353.029 470.025 353.895 470.495 353.895C470.696 353.895 470.86 354.048 470.86 354.235C470.86 354.422 471.166 354.575 471.54 354.575C471.917 354.575 472.22 354.801 472.22 355.085C472.22 355.365 472.394 355.594 472.607 355.594C472.819 355.594 473.451 356.13 474.01 356.784C474.569 357.439 475.243 357.974 475.506 357.974C475.77 357.974 476.654 358.663 477.472 359.504C478.29 360.346 479.126 361.034 479.329 361.034C479.533 361.034 479.7 361.263 479.7 361.544C479.7 361.827 480.003 362.054 480.38 362.054C480.754 362.054 481.06 362.207 481.06 362.394C481.06 362.581 481.224 362.734 481.425 362.734C481.821 362.734 482.76 363.571 482.76 363.924C482.76 364.208 483.666 365.114 483.95 365.114C484.234 365.114 485.14 366.02 485.14 366.304C485.14 366.777 486.149 367.493 486.815 367.493C487.215 367.493 487.52 367.714 487.52 368.003C487.52 368.284 487.635 368.513 487.775 368.513C488.209 368.514 489.9 370.101 489.9 370.508C489.9 370.72 490.063 370.893 490.263 370.893C490.463 370.893 491.286 371.582 492.092 372.423C492.899 373.264 493.807 373.953 494.109 373.953C494.412 373.953 494.66 374.106 494.66 374.293C494.66 374.48 494.89 374.633 495.17 374.633C495.451 374.633 495.68 374.792 495.68 374.986C495.68 375.549 498.292 378.033 498.884 378.033C499.179 378.033 499.42 378.186 499.42 378.373C499.42 378.56 499.65 378.712 499.93 378.712C500.211 378.712 500.44 378.877 500.44 379.077C500.44 379.473 501.277 380.412 501.63 380.412C501.983 380.412 502.82 381.352 502.82 381.748C502.82 381.948 503.133 382.112 503.515 382.112C504.239 382.112 505.88 383.517 505.88 384.137C505.88 384.332 506.076 384.492 506.315 384.492C506.554 384.492 506.971 384.798 507.24 385.172C507.509 385.546 508.079 385.852 508.505 385.852C508.932 385.852 509.28 386.016 509.28 386.216C509.28 386.687 510.145 387.552 510.615 387.552C510.816 387.552 510.98 387.716 510.98 387.916C510.98 388.466 511.879 389.252 512.51 389.252C513.06 389.252 514.04 390.014 514.04 390.441C514.04 390.869 515.02 391.631 515.57 391.631C516.201 391.631 517.1 392.417 517.1 392.967C517.1 393.167 517.26 393.331 517.454 393.331C517.65 393.331 518.631 394.173 519.636 395.201C520.639 396.229 521.627 397.071 521.83 397.071C522.033 397.071 522.2 397.233 522.2 397.432C522.2 397.63 523.271 398.856 524.58 400.154C525.889 401.452 526.96 402.743 526.96 403.023C526.96 403.302 527.113 403.53 527.3 403.53C527.487 403.53 527.64 403.913 527.64 404.38C527.64 404.848 527.793 405.23 527.98 405.23C528.167 405.23 528.32 405.541 528.32 405.921C528.32 406.3 528.55 406.7 528.83 406.807C529.176 406.94 529.34 407.483 529.34 408.496C529.34 409.318 529.493 409.99 529.68 409.99C529.892 409.99 530.02 411.973 530.02 415.259C530.02 418.546 529.892 420.529 529.68 420.529C529.482 420.529 529.34 421.65 529.34 423.212C529.34 425.284 529.224 425.94 528.83 426.092C528.443 426.24 528.32 426.866 528.32 428.677C528.32 430.045 528.175 431.068 527.98 431.068C527.775 431.068 527.64 432.485 527.64 434.638C527.64 436.791 527.505 438.207 527.3 438.207C527.105 438.207 526.96 439.227 526.96 440.587C526.96 442.476 526.855 442.967 526.45 442.967C526.133 442.967 525.94 443.288 525.94 443.817C525.94 444.44 525.759 444.667 525.26 444.667C524.886 444.667 524.58 444.82 524.58 445.007C524.58 445.194 524.416 445.347 524.215 445.347C523.745 445.347 522.88 446.212 522.88 446.682C522.88 446.883 522.567 447.047 522.186 447.047C521.474 447.047 515.74 452.478 515.74 453.152C515.74 453.346 515.58 453.506 515.385 453.506C514.923 453.506 513.36 455.069 513.36 455.531C513.36 455.726 513.204 455.886 513.012 455.886C512.326 455.886 508.186 460.301 508.385 460.82C508.495 461.108 508.388 461.325 508.137 461.325C507.894 461.325 507.49 461.708 507.24 462.175C506.99 462.643 506.647 463.025 506.478 463.025C506.054 463.025 505.2 463.918 505.2 464.361C505.2 464.561 505.047 464.725 504.86 464.725C504.673 464.725 504.52 465.031 504.52 465.405C504.52 465.782 504.293 466.085 504.01 466.085C503.73 466.085 503.5 466.281 503.5 466.52C503.5 466.759 503.194 467.175 502.82 467.445C502.446 467.714 502.14 468.284 502.14 468.71C502.14 469.136 501.972 469.485 501.766 469.485C501.244 469.485 499.42 471.495 499.42 472.07C499.42 472.331 499.267 472.544 499.08 472.544C498.893 472.544 498.74 472.709 498.74 472.909C498.74 473.397 497.868 474.244 497.365 474.244C497.137 474.244 497.033 474.523 497.128 474.883C497.243 475.325 496.888 475.874 495.978 476.661C495.253 477.286 494.66 478.036 494.66 478.327C494.66 478.616 494.354 479.074 493.98 479.344C493.606 479.613 493.3 480.03 493.3 480.269C493.3 480.508 493.071 480.704 492.79 480.704C492.507 480.704 492.28 481.006 492.28 481.384C492.28 481.758 492.127 482.064 491.94 482.064C491.753 482.064 491.6 482.228 491.6 482.428C491.6 482.898 490.735 483.764 490.265 483.764C490.064 483.764 489.9 484.08 489.9 484.466C489.9 484.853 489.365 485.674 488.71 486.291C488.056 486.908 487.52 487.663 487.52 487.968C487.52 488.273 487.367 488.523 487.18 488.523C486.993 488.523 486.84 488.753 486.84 489.033C486.84 489.314 486.68 489.543 486.485 489.543C485.865 489.543 484.46 491.184 484.46 491.908C484.46 492.29 484.296 492.603 484.095 492.603C483.699 492.603 482.76 493.44 482.76 493.793C482.76 494.145 481.821 494.983 481.425 494.983C481.224 494.983 481.06 495.212 481.06 495.493C481.06 495.776 480.757 496.002 480.38 496.002C480.006 496.002 479.7 496.155 479.7 496.342C479.7 496.529 479.536 496.682 479.335 496.682C478.865 496.682 478 497.548 478 498.018C478 498.218 477.681 498.382 477.292 498.382C476.902 498.382 476.063 498.918 475.428 499.572C474.792 500.227 474.04 500.762 473.756 500.762C473.472 500.762 473.24 500.915 473.24 501.102C473.24 501.289 473.011 501.442 472.73 501.442C472.45 501.442 472.22 501.657 472.22 501.921C472.22 502.231 471.982 502.336 471.54 502.221C471.067 502.096 470.86 502.21 470.86 502.592C470.86 502.895 470.631 503.142 470.35 503.142C470.07 503.142 469.84 503.295 469.84 503.482C469.84 503.669 469.634 503.822 469.382 503.822C468.7 503.822 466.78 504.843 466.78 505.206C466.78 505.38 466.551 505.522 466.27 505.522C465.99 505.522 465.76 505.675 465.76 505.862C465.76 506.049 465.454 506.202 465.08 506.202C464.703 506.202 464.4 506.429 464.4 506.712C464.4 506.992 464.171 507.221 463.89 507.221C463.61 507.221 463.38 507.374 463.38 507.561C463.38 507.748 463.074 507.901 462.7 507.901C462.326 507.901 462.02 508.054 462.02 508.241C462.02 508.428 461.638 508.581 461.17 508.581C460.703 508.581 460.32 508.745 460.32 508.946C460.32 509.545 459.397 510.281 458.645 510.281C458.257 510.281 457.94 510.434 457.94 510.621C457.94 510.808 457.655 510.961 457.308 510.961C456.96 510.961 456.388 511.344 456.037 511.811C455.686 512.279 455.118 512.661 454.775 512.661C454.09 512.661 453.18 513.423 453.18 513.996C453.18 514.197 452.867 514.361 452.485 514.361C452.102 514.361 451.407 514.743 450.939 515.211C450.472 515.678 449.901 516.061 449.67 516.061C449.439 516.061 449.029 516.367 448.76 516.741C448.491 517.115 447.921 517.421 447.495 517.421C447.033 517.421 446.72 517.626 446.72 517.931C446.72 518.211 446.491 518.441 446.21 518.441C445.93 518.441 445.7 518.594 445.7 518.781C445.7 518.967 445.394 519.12 445.02 519.12C444.646 519.12 444.34 519.273 444.34 519.46C444.34 519.647 444.111 519.8 443.83 519.8C443.55 519.8 443.32 520.03 443.32 520.31C443.32 520.593 443.017 520.82 442.64 520.82C442.266 520.82 441.96 520.973 441.96 521.16C441.96 521.347 441.731 521.5 441.45 521.5C441.17 521.5 440.94 521.653 440.94 521.84C440.94 522.027 440.634 522.18 440.26 522.18C439.883 522.18 439.58 522.407 439.58 522.69C439.58 522.971 439.351 523.2 439.07 523.2C438.79 523.2 438.56 523.353 438.56 523.54C438.56 523.727 438.254 523.88 437.88 523.88C437.506 523.88 437.2 524.033 437.2 524.22C437.2 524.407 436.971 524.56 436.69 524.56C436.41 524.56 436.18 524.724 436.18 524.925C436.18 525.506 435.266 526.26 434.562 526.26C434.206 526.26 433.71 526.642 433.46 527.11C433.21 527.577 432.714 527.96 432.358 527.96C431.654 527.96 430.74 528.714 430.74 529.295C430.74 529.496 430.392 529.66 429.965 529.66C429.539 529.66 428.969 529.966 428.7 530.34C428.431 530.714 428.014 531.019 427.775 531.019C427.536 531.019 427.34 531.249 427.34 531.529C427.34 531.812 427.037 532.039 426.66 532.039C426.286 532.039 425.98 532.192 425.98 532.379C425.98 532.566 425.816 532.719 425.615 532.719C425.145 532.719 424.28 533.585 424.28 534.055C424.28 534.255 423.932 534.419 423.505 534.419C423.079 534.419 422.509 534.725 422.24 535.099C421.971 535.473 421.499 535.779 421.193 535.779C420.886 535.779 420.348 536.162 419.997 536.629C419.646 537.096 419.166 537.479 418.929 537.479C418.693 537.479 418.5 537.643 418.5 537.844C418.5 538.393 417.601 539.179 416.97 539.179C416.339 539.179 415.44 539.964 415.44 540.514C415.44 540.715 415.121 540.879 414.732 540.879C414.342 540.879 413.503 541.414 412.868 542.069C412.232 542.723 411.48 543.258 411.196 543.258C410.912 543.258 410.68 543.411 410.68 543.598C410.68 543.785 410.516 543.938 410.315 543.938C409.919 543.938 408.98 544.776 408.98 545.128C408.98 545.481 408.041 546.318 407.645 546.318C407.444 546.318 407.28 546.471 407.28 546.658C407.28 546.845 407.045 546.998 406.759 546.998C406.473 546.998 406.15 547.228 406.043 547.508C405.935 547.789 405.7 548.018 405.52 548.018C405.079 548.018 404.22 548.9 404.22 549.353C404.22 549.554 404.025 549.718 403.785 549.718C403.546 549.718 403.129 550.024 402.86 550.398C402.591 550.772 402.134 551.078 401.847 551.078C401.559 551.078 400.866 551.61 400.307 552.26C399.747 552.911 399.099 553.447 398.865 553.45C398.631 553.454 398.44 553.617 398.44 553.813C398.44 554.273 396.678 556.034 396.328 555.922C396.181 555.876 396.06 556.001 396.06 556.202C396.06 556.783 395.146 557.537 394.442 557.537C394.086 557.537 393.599 557.903 393.36 558.35C393.121 558.797 392.56 559.358 392.113 559.597C391.666 559.836 391.3 560.17 391.3 560.339C391.3 560.69 390.437 561.617 390.11 561.617C389.826 561.617 388.92 562.523 388.92 562.807C388.92 563.091 388.014 563.997 387.73 563.997C387.257 563.997 386.54 565.005 386.54 565.672C386.54 566.059 386.387 566.376 386.2 566.376C386.013 566.376 385.86 566.601 385.86 566.875C385.86 567.18 385.66 567.299 385.35 567.18C385.07 567.072 384.84 567.16 384.84 567.375C384.84 567.591 384.458 568.149 383.99 568.617C383.015 569.593 382.926 570.193 383.65 570.918C383.931 571.198 384.16 571.745 384.16 572.131C384.16 572.904 387.619 573.226 388.07 572.496C388.186 572.309 388.577 572.156 388.94 572.156C389.303 572.156 389.6 571.926 389.6 571.646C389.6 571.329 389.921 571.136 390.45 571.136C390.918 571.136 391.3 570.983 391.3 570.796C391.3 570.609 391.683 570.456 392.15 570.456C392.679 570.456 393 570.263 393 569.946C393 569.59 393.359 569.436 394.19 569.436C394.845 569.436 395.38 569.283 395.38 569.096C395.38 568.909 395.677 568.756 396.04 568.756C396.403 568.756 396.794 568.603 396.91 568.416C397.026 568.229 397.417 568.076 397.78 568.076C398.143 568.076 398.44 567.847 398.44 567.566C398.44 567.249 398.761 567.056 399.29 567.056C399.758 567.056 400.14 566.903 400.14 566.716C400.14 566.529 400.523 566.376 400.99 566.376C401.458 566.376 401.84 566.223 401.84 566.036C401.84 565.849 402.146 565.697 402.52 565.697C402.897 565.697 403.2 565.47 403.2 565.187C403.2 564.87 403.521 564.677 404.05 564.677C404.518 564.677 404.9 564.524 404.9 564.337C404.9 564.15 405.283 563.997 405.75 563.997C406.218 563.997 406.6 563.844 406.6 563.657C406.6 563.47 406.911 563.317 407.291 563.317C407.67 563.317 408.07 563.087 408.177 562.807C408.297 562.492 408.814 562.297 409.527 562.297C410.161 562.297 410.68 562.144 410.68 561.957C410.68 561.77 410.986 561.617 411.36 561.617C411.734 561.617 412.04 561.464 412.04 561.277C412.04 561.09 412.576 560.937 413.23 560.937C414.061 560.937 414.42 560.783 414.42 560.427C414.42 560.11 414.741 559.917 415.27 559.917C415.738 559.917 416.12 559.764 416.12 559.577C416.12 559.39 416.503 559.237 416.97 559.237C417.499 559.237 417.82 559.044 417.82 558.727C417.82 558.371 418.179 558.217 419.01 558.217C419.665 558.217 420.2 558.064 420.2 557.877C420.2 557.69 420.583 557.537 421.05 557.537C421.518 557.537 421.9 557.384 421.9 557.197C421.9 557.01 422.206 556.857 422.58 556.857C422.957 556.857 423.26 556.63 423.26 556.347C423.26 556.03 423.581 555.837 424.11 555.837C424.578 555.837 424.96 555.684 424.96 555.497C424.96 555.31 425.343 555.157 425.81 555.157C426.278 555.157 426.66 555.004 426.66 554.817C426.66 554.63 427.124 554.477 427.691 554.477C428.293 554.477 428.803 554.266 428.917 553.967C429.025 553.687 429.479 553.458 429.927 553.458C430.374 553.458 430.74 553.305 430.74 553.118C430.74 552.931 431.046 552.778 431.42 552.778C431.794 552.778 432.1 552.625 432.1 552.438C432.1 552.251 432.411 552.098 432.791 552.098C433.17 552.098 433.57 551.868 433.677 551.588C433.785 551.307 434.239 551.078 434.687 551.078C435.134 551.078 435.5 550.925 435.5 550.738C435.5 550.551 435.806 550.398 436.18 550.398C436.554 550.398 436.86 550.245 436.86 550.058C436.86 549.871 437.243 549.718 437.71 549.718C438.239 549.718 438.56 549.525 438.56 549.208C438.56 548.891 438.881 548.698 439.41 548.698C439.878 548.698 440.26 548.545 440.26 548.358C440.26 548.171 440.643 548.018 441.11 548.018C441.639 548.018 441.96 547.825 441.96 547.508C441.96 547.225 442.263 546.998 442.64 546.998C443.014 546.998 443.32 546.845 443.32 546.658C443.32 546.471 443.703 546.318 444.17 546.318C444.638 546.318 445.02 546.183 445.02 546.018C445.02 545.852 445.403 545.644 445.87 545.555C446.44 545.446 446.72 545.545 446.72 545.855C446.72 546.113 446.37 546.318 445.928 546.318C445.43 546.318 444.966 546.634 444.68 547.168C444.43 547.636 444.087 548.018 443.918 548.018C443.567 548.018 442.64 548.881 442.64 549.208C442.64 549.492 441.734 550.398 441.45 550.398C441.166 550.398 440.26 551.304 440.26 551.588C440.26 552.015 439.28 552.778 438.73 552.778C438.099 552.778 437.2 553.563 437.2 554.113C437.2 554.313 437.036 554.477 436.835 554.477C436.365 554.477 435.5 555.343 435.5 555.813C435.5 556.013 435.309 556.139 435.075 556.092C434.841 556.046 434.688 556.199 434.735 556.432C434.782 556.668 434.491 556.857 434.081 556.857C433.65 556.857 432.733 557.494 431.877 558.387C431.072 559.229 430.256 559.917 430.066 559.917C429.876 559.917 429.72 560.146 429.72 560.427C429.72 560.71 429.417 560.937 429.04 560.937C428.666 560.937 428.36 561.09 428.36 561.277C428.36 561.464 428.196 561.617 427.995 561.617C427.525 561.617 426.66 562.482 426.66 562.952C426.66 563.153 426.5 563.317 426.305 563.317C425.843 563.317 424.28 564.88 424.28 565.341C424.28 565.537 423.96 565.697 423.569 565.697C423.175 565.697 422.199 566.376 421.372 567.226C420.554 568.068 419.574 568.756 419.193 568.756C418.812 568.756 418.5 568.916 418.5 569.112C418.5 569.573 416.937 571.136 416.475 571.136C416.28 571.136 416.12 571.3 416.12 571.501C416.12 571.971 415.255 572.836 414.785 572.836C414.584 572.836 414.42 572.989 414.42 573.176C414.42 573.363 414.114 573.516 413.74 573.516C413.363 573.516 413.06 573.743 413.06 574.026C413.06 574.306 412.9 574.536 412.705 574.536C412.243 574.536 410.68 576.099 410.68 576.56C410.68 576.756 410.516 576.916 410.315 576.916C409.85 576.916 408.98 577.778 408.98 578.241C408.98 578.435 408.756 578.508 408.482 578.403C408.16 578.279 406.841 579.365 404.753 581.473C402.976 583.267 401.365 584.735 401.171 584.735C400.978 584.735 400.82 585.27 400.82 585.925C400.82 586.968 400.925 587.115 401.67 587.115C402.199 587.115 402.52 587.308 402.52 587.625C402.52 587.91 402.823 588.135 403.211 588.135C403.59 588.135 403.99 587.905 404.097 587.625C404.205 587.344 404.582 587.115 404.937 587.115C405.29 587.115 405.58 586.962 405.58 586.775C405.58 586.588 406.077 586.43 406.685 586.424C407.851 586.413 408.98 585.773 408.98 585.122C408.98 584.909 409.363 584.735 409.83 584.735C410.298 584.735 410.68 584.582 410.68 584.395C410.68 584.208 410.986 584.055 411.36 584.055C411.734 584.055 412.04 583.902 412.04 583.715C412.04 583.528 412.423 583.375 412.89 583.375C413.419 583.375 413.74 583.182 413.74 582.865C413.74 582.548 414.061 582.355 414.59 582.355C415.058 582.355 415.44 582.202 415.44 582.015C415.44 581.828 415.751 581.675 416.131 581.675C416.51 581.675 416.91 581.446 417.017 581.165C417.125 580.885 417.502 580.655 417.857 580.655C418.21 580.655 418.5 580.502 418.5 580.315C418.5 580.128 418.817 579.975 419.205 579.975C419.957 579.975 420.88 579.239 420.88 578.64C420.88 578.439 421.263 578.275 421.73 578.275C422.198 578.275 422.58 578.122 422.58 577.935C422.58 577.748 422.963 577.595 423.43 577.595C423.898 577.595 424.28 577.443 424.28 577.255C424.28 577.069 424.586 576.916 424.96 576.916C425.337 576.916 425.64 576.689 425.64 576.406C425.64 576.089 425.961 575.896 426.49 575.896C426.958 575.896 427.34 575.743 427.34 575.556C427.34 575.369 427.657 575.216 428.045 575.216C428.797 575.216 429.72 574.48 429.72 573.88C429.72 573.68 430.103 573.516 430.57 573.516C431.038 573.516 431.42 573.363 431.42 573.176C431.42 572.989 431.803 572.836 432.27 572.836C432.738 572.836 433.12 572.683 433.12 572.496C433.12 572.309 433.426 572.156 433.8 572.156C434.177 572.156 434.48 571.929 434.48 571.646C434.48 571.329 434.801 571.136 435.33 571.136C435.798 571.136 436.18 570.983 436.18 570.796C436.18 570.609 436.563 570.456 437.03 570.456C437.559 570.456 437.88 570.263 437.88 569.946C437.88 569.642 438.193 569.436 438.655 569.436C439.081 569.436 439.651 569.13 439.92 568.756C440.189 568.382 440.688 568.076 441.026 568.076C441.364 568.076 441.73 567.847 441.837 567.566C441.945 567.286 442.322 567.056 442.677 567.056C443.03 567.056 443.32 566.903 443.32 566.716C443.32 566.529 443.703 566.376 444.17 566.376C444.638 566.376 445.02 566.223 445.02 566.036C445.02 565.849 445.331 565.697 445.711 565.697C446.09 565.697 446.49 565.467 446.597 565.187C446.705 564.906 447.082 564.677 447.437 564.677C447.79 564.677 448.08 564.524 448.08 564.337C448.08 564.15 448.406 563.997 448.806 563.997C449.205 563.997 449.886 563.614 450.32 563.147C450.753 562.679 451.344 562.297 451.634 562.297C451.923 562.297 452.16 562.144 452.16 561.957C452.16 561.77 452.543 561.617 453.01 561.617C453.478 561.617 453.86 561.464 453.86 561.277C453.86 561.09 454.145 560.937 454.492 560.937C454.84 560.937 455.412 560.554 455.763 560.087C456.215 559.484 456.725 559.237 457.511 559.237C458.27 559.237 458.62 559.076 458.62 558.727C458.62 558.447 458.85 558.217 459.13 558.217C459.411 558.217 459.64 558.064 459.64 557.877C459.64 557.69 459.946 557.537 460.32 557.537C460.694 557.537 461 557.384 461 557.197C461 557.01 461.383 556.857 461.85 556.857C462.379 556.857 462.7 556.664 462.7 556.347C462.7 556.03 463.021 555.837 463.55 555.837C464.018 555.837 464.4 555.684 464.4 555.497C464.4 555.31 464.706 555.157 465.08 555.157C465.454 555.157 465.76 555.004 465.76 554.817C465.76 554.63 466.143 554.477 466.61 554.477C467.139 554.477 467.46 554.285 467.46 553.967C467.46 553.663 467.773 553.458 468.235 553.458C468.661 553.458 469.231 553.152 469.5 552.778C469.769 552.404 470.339 552.098 470.765 552.098C471.227 552.098 471.54 551.892 471.54 551.588C471.54 551.271 471.861 551.078 472.39 551.078C472.858 551.078 473.24 550.925 473.24 550.738C473.24 550.551 473.546 550.398 473.92 550.398C474.294 550.398 474.6 550.245 474.6 550.058C474.6 549.871 474.83 549.718 475.11 549.718C475.391 549.718 475.62 549.488 475.62 549.208C475.62 548.865 475.963 548.698 476.665 548.698C477.706 548.698 478.68 548.053 478.68 547.363C478.68 547.162 479.063 546.998 479.53 546.998C479.998 546.998 480.38 546.845 480.38 546.658C480.38 546.471 480.677 546.318 481.04 546.318C481.403 546.318 481.794 546.165 481.91 545.978C482.026 545.791 482.417 545.638 482.78 545.638C483.143 545.638 483.44 545.409 483.44 545.128C483.44 544.811 483.761 544.618 484.29 544.618C484.758 544.618 485.14 544.465 485.14 544.278C485.14 544.091 485.457 543.938 485.845 543.938C486.597 543.938 487.52 543.202 487.52 542.603C487.52 542.403 487.903 542.239 488.37 542.239C488.838 542.239 489.22 542.086 489.22 541.899C489.22 541.712 489.526 541.559 489.9 541.559C490.274 541.559 490.58 541.406 490.58 541.219C490.58 541.032 490.891 540.879 491.271 540.879C491.65 540.879 492.05 540.649 492.157 540.369C492.265 540.088 492.719 539.859 493.167 539.859C493.614 539.859 493.98 539.706 493.98 539.519C493.98 539.332 494.291 539.179 494.671 539.179C495.05 539.179 495.45 538.949 495.557 538.669C495.665 538.388 496.042 538.159 496.397 538.159C496.75 538.159 497.04 538.006 497.04 537.819C497.04 537.632 497.357 537.479 497.745 537.479C498.497 537.479 499.42 536.743 499.42 536.144C499.42 535.943 499.803 535.779 500.27 535.779C500.738 535.779 501.12 535.626 501.12 535.439C501.12 535.252 501.503 535.099 501.97 535.099C502.438 535.099 502.82 534.946 502.82 534.759C502.82 534.572 503.131 534.419 503.511 534.419C503.89 534.419 504.29 534.19 504.397 533.909C504.505 533.629 504.882 533.399 505.237 533.399C505.59 533.399 505.88 533.246 505.88 533.059C505.88 532.872 506.263 532.719 506.73 532.719C507.198 532.719 507.58 532.566 507.58 532.379C507.58 532.192 507.963 532.039 508.43 532.039C508.959 532.039 509.28 531.846 509.28 531.529C509.28 531.173 509.639 531.019 510.47 531.019C511.125 531.019 511.66 530.866 511.66 530.68C511.66 530.493 511.957 530.34 512.32 530.34C512.683 530.34 513.074 530.187 513.19 530C513.306 529.813 513.855 529.66 514.411 529.66C514.995 529.66 515.504 529.445 515.617 529.15C515.737 528.835 516.254 528.64 516.967 528.64C517.601 528.64 518.12 528.487 518.12 528.3C518.12 528.113 518.426 527.96 518.8 527.96C519.177 527.96 519.48 527.733 519.48 527.45C519.48 527.065 519.896 526.94 521.18 526.94C522.115 526.94 522.88 526.787 522.88 526.6C522.88 526.413 523.416 526.26 524.07 526.26C524.725 526.26 525.26 526.107 525.26 525.92C525.26 525.733 525.796 525.58 526.45 525.58C527.281 525.58 527.64 525.426 527.64 525.07C527.64 524.714 527.999 524.56 528.83 524.56C529.485 524.56 530.02 524.407 530.02 524.22C530.02 524.033 530.709 523.88 531.55 523.88C532.392 523.88 533.08 523.727 533.08 523.54C533.08 523.353 533.621 523.2 534.281 523.2C535.034 523.2 535.554 523.011 535.677 522.69C535.81 522.344 536.353 522.18 537.367 522.18C538.188 522.18 538.86 522.027 538.86 521.84C538.86 521.653 539.396 521.5 540.05 521.5C540.705 521.5 541.24 521.347 541.24 521.16C541.24 520.973 541.776 520.82 542.43 520.82C543.261 520.82 543.62 520.667 543.62 520.31C543.62 519.993 543.941 519.8 544.47 519.8C544.938 519.8 545.32 519.647 545.32 519.46C545.32 519.273 546.009 519.12 546.85 519.12C547.692 519.12 548.38 518.967 548.38 518.781C548.38 518.594 548.763 518.441 549.23 518.441C549.759 518.441 550.08 518.248 550.08 517.931C550.08 517.574 550.439 517.421 551.27 517.421C551.925 517.421 552.46 517.268 552.46 517.081C552.46 516.894 552.843 516.741 553.31 516.741C553.839 516.741 554.16 516.548 554.16 516.231C554.16 515.875 554.519 515.721 555.35 515.721C556.005 515.721 556.54 515.568 556.54 515.381C556.54 515.194 556.837 515.041 557.2 515.041C557.563 515.041 557.954 514.888 558.07 514.701C558.186 514.514 558.577 514.361 558.94 514.361C559.303 514.361 559.6 514.131 559.6 513.851C559.6 513.534 559.921 513.341 560.45 513.341C560.918 513.341 561.3 513.188 561.3 513.001C561.3 512.814 561.683 512.661 562.15 512.661C562.618 512.661 563 512.508 563 512.321C563 512.134 563.306 511.981 563.68 511.981C564.057 511.981 564.36 511.754 564.36 511.471C564.36 511.154 564.681 510.961 565.21 510.961C565.678 510.961 566.06 510.808 566.06 510.621C566.06 510.434 566.443 510.281 566.91 510.281C567.378 510.281 567.76 510.128 567.76 509.941C567.76 509.754 568.071 509.601 568.451 509.601C568.83 509.601 569.23 509.372 569.337 509.091C569.445 508.811 569.822 508.581 570.177 508.581C570.53 508.581 570.82 508.428 570.82 508.241C570.82 508.054 571.137 507.901 571.525 507.901C572.277 507.901 573.2 507.165 573.2 506.566C573.2 506.366 573.583 506.202 574.05 506.202C574.518 506.202 574.9 506.049 574.9 505.862C574.9 505.675 575.283 505.522 575.75 505.522C576.279 505.522 576.6 505.329 576.6 505.012C576.6 504.607 577.091 504.502 578.98 504.502C580.869 504.502 581.36 504.607 581.36 505.012C581.36 505.315 581.672 505.522 582.129 505.522C582.553 505.522 583.185 505.903 583.537 506.372C583.888 506.839 584.46 507.221 584.808 507.221C585.155 507.221 585.44 507.374 585.44 507.561C585.44 507.748 585.823 507.901 586.29 507.901C586.758 507.901 587.14 508.054 587.14 508.241C587.14 508.428 587.43 508.581 587.783 508.581C588.138 508.581 588.515 508.811 588.623 509.091C588.73 509.372 589.13 509.601 589.509 509.601C589.889 509.601 590.2 509.754 590.2 509.941C590.2 510.128 590.517 510.281 590.905 510.281C591.657 510.281 592.58 511.017 592.58 511.616C592.58 511.817 592.963 511.981 593.43 511.981C593.898 511.981 594.28 512.134 594.28 512.321C594.28 512.508 594.586 512.661 594.96 512.661C595.334 512.661 595.64 512.814 595.64 513.001C595.64 513.188 595.87 513.341 596.15 513.341C596.431 513.341 596.66 513.57 596.66 513.851C596.66 514.138 596.964 514.361 597.355 514.361C598.079 514.361 599.72 515.766 599.72 516.385C599.72 516.581 599.95 516.741 600.23 516.741C600.511 516.741 600.74 516.894 600.74 517.081C600.74 517.268 600.964 517.421 601.238 517.421C601.893 517.421 603.8 519.296 603.8 519.939C603.8 520.214 603.953 520.535 604.14 520.65C604.327 520.766 604.48 521.158 604.48 521.521C604.48 521.884 604.71 522.18 604.99 522.18C605.375 522.18 605.5 522.596 605.5 523.88C605.5 524.815 605.653 525.58 605.84 525.58C606.027 525.58 606.18 526.268 606.18 527.11C606.18 527.951 606.313 528.64 606.476 528.64C606.639 528.64 606.876 529.558 607.003 530.68C607.13 531.801 607.379 532.719 607.557 532.719C607.735 532.719 607.88 533.255 607.88 533.909C607.88 534.564 608.033 535.099 608.22 535.099C608.407 535.099 608.56 535.635 608.56 536.289C608.56 537.12 608.714 537.479 609.07 537.479C609.447 537.479 609.58 537.873 609.58 538.988C609.58 539.819 609.733 540.593 609.92 540.709C610.107 540.824 610.26 541.446 610.26 542.089C610.26 542.732 610.413 543.258 610.6 543.258C610.787 543.258 610.94 543.564 610.94 543.938C610.94 544.316 611.167 544.618 611.45 544.618C611.806 544.618 611.96 544.977 611.96 545.808C611.96 546.463 612.113 546.998 612.3 546.998C612.487 546.998 612.64 547.524 612.64 548.168C612.64 548.811 612.793 549.432 612.98 549.548C613.167 549.663 613.32 550.213 613.32 550.768C613.32 551.353 613.535 551.861 613.83 551.974C614.145 552.095 614.34 552.612 614.34 553.324C614.34 553.958 614.493 554.477 614.68 554.477C614.867 554.477 615.02 555.013 615.02 555.667C615.02 556.322 615.173 556.857 615.36 556.857C615.547 556.857 615.7 557.321 615.7 557.888C615.7 558.49 615.912 559 616.21 559.114C616.491 559.222 616.72 559.676 616.72 560.124C616.72 560.571 616.873 560.937 617.06 560.937C617.247 560.937 617.4 561.472 617.4 562.127C617.4 562.958 617.554 563.317 617.91 563.317C618.287 563.317 618.42 563.714 618.42 564.847C618.42 565.688 618.573 566.376 618.76 566.376C618.947 566.376 619.1 566.912 619.1 567.566C619.1 568.221 619.253 568.756 619.44 568.756C619.627 568.756 619.78 569.45 619.78 570.297C619.78 571.353 619.941 571.899 620.29 572.033C620.605 572.153 620.8 572.67 620.8 573.382C620.8 574.016 620.953 574.536 621.14 574.536C621.327 574.536 621.48 575.224 621.48 576.066C621.48 576.907 621.633 577.595 621.82 577.595C622.007 577.595 622.16 578.131 622.16 578.785C622.16 579.617 622.314 579.975 622.67 579.975C623.067 579.975 623.18 580.428 623.18 582.015C623.18 583.148 623.331 584.055 623.52 584.055C623.708 584.055 623.86 584.949 623.86 586.058C623.86 587.594 623.989 588.112 624.413 588.274C624.849 588.441 624.92 588.769 624.748 589.84C624.577 590.917 624.637 591.194 625.046 591.194C625.464 591.194 625.56 591.732 625.56 594.084C625.56 595.784 625.7 596.974 625.9 596.974C626.095 596.974 626.24 597.994 626.24 599.354C626.24 600.714 626.385 601.733 626.58 601.733C626.776 601.733 626.92 602.814 626.92 604.294C626.92 606.256 627.039 606.9 627.43 607.05C627.844 607.209 627.94 608.008 627.94 611.289C627.94 613.758 628.073 615.332 628.28 615.332C628.492 615.332 628.62 617.262 628.62 620.443C628.62 624.671 628.708 625.587 629.13 625.748C629.899 626.044 629.899 649.497 629.13 649.793C628.699 649.957 628.62 651.096 628.62 657.138C628.62 661.678 628.496 664.288 628.28 664.288C628.078 664.288 627.94 665.579 627.94 667.481C627.94 670.006 627.833 670.716 627.43 670.871C627.039 671.02 626.92 671.665 626.92 673.626C626.92 675.107 626.776 676.187 626.58 676.187C626.385 676.187 626.24 677.207 626.24 678.567C626.24 679.927 626.095 680.947 625.9 680.947C625.7 680.947 625.56 682.137 625.56 683.836C625.56 686.282 625.475 686.726 625.006 686.726C624.562 686.726 624.49 686.963 624.644 687.914C624.773 688.709 624.675 689.262 624.348 689.589C624.041 689.896 623.86 690.779 623.86 691.971C623.86 693.013 623.707 693.866 623.52 693.866C623.326 693.866 623.18 694.874 623.18 696.209C623.18 697.978 623.055 698.6 622.67 698.748C622.321 698.882 622.16 699.428 622.16 700.484C622.16 701.331 622.007 702.025 621.82 702.025C621.633 702.025 621.48 702.713 621.48 703.555C621.48 704.396 621.327 705.085 621.14 705.085C620.951 705.085 620.8 705.991 620.8 707.124C620.8 708.711 620.687 709.164 620.29 709.164C619.913 709.164 619.78 709.561 619.78 710.694C619.78 711.536 619.627 712.224 619.44 712.224C619.253 712.224 619.1 712.989 619.1 713.924C619.1 714.859 618.947 715.624 618.76 715.624C618.573 715.624 618.42 716.312 618.42 717.154C618.42 718.286 618.287 718.683 617.91 718.683C617.525 718.683 617.4 719.099 617.4 720.383C617.4 721.318 617.247 722.083 617.06 722.083C616.873 722.083 616.72 722.602 616.72 723.236C616.72 723.949 616.525 724.465 616.21 724.586C615.912 724.7 615.7 725.21 615.7 725.812C615.7 726.379 615.547 726.843 615.36 726.843C615.173 726.843 615.02 727.378 615.02 728.033C615.02 728.687 614.867 729.222 614.68 729.222C614.493 729.222 614.34 729.834 614.34 730.582V731.942H616.522C619.008 731.942 619.78 731.732 619.78 731.056C619.78 730.796 619.94 730.582 620.135 730.582C620.597 730.582 622.16 729.019 622.16 728.558C622.16 728.362 622.32 728.203 622.515 728.203C623.135 728.203 624.54 726.561 624.54 725.838C624.54 725.456 624.704 725.143 624.905 725.143C625.375 725.143 626.24 724.278 626.24 723.808C626.24 723.607 626.393 723.443 626.58 723.443C626.767 723.443 626.92 723.137 626.92 722.763C626.92 722.386 627.147 722.083 627.43 722.083C627.711 722.083 627.94 721.854 627.94 721.573C627.94 721.293 628.093 721.063 628.28 721.063C628.467 721.063 628.62 720.681 628.62 720.213C628.62 719.746 628.784 719.363 628.985 719.363C629.535 719.363 630.32 718.464 630.32 717.833C630.32 717.284 631.082 716.304 631.51 716.304C631.983 716.304 632.7 715.295 632.7 714.628C632.7 714.241 632.853 713.924 633.04 713.924C633.227 713.924 633.38 713.541 633.38 713.074C633.38 712.606 633.544 712.224 633.745 712.224C634.318 712.224 635.08 711.314 635.08 710.63C635.08 710.286 635.463 709.718 635.93 709.367C636.398 709.016 636.78 708.478 636.78 708.172C636.78 707.866 637.086 707.394 637.46 707.124C637.834 706.855 638.14 706.286 638.14 705.86C638.14 705.397 638.346 705.085 638.65 705.085C638.967 705.085 639.16 704.763 639.16 704.235C639.16 703.767 639.313 703.385 639.5 703.385C639.687 703.385 639.84 703.148 639.84 702.859C639.84 702.569 640.223 701.978 640.69 701.545C641.158 701.111 641.54 700.43 641.54 700.031C641.54 699.631 641.693 699.305 641.88 699.305C642.067 699.305 642.22 699.015 642.22 698.662C642.22 698.307 642.45 697.93 642.73 697.822C643.011 697.715 643.24 697.315 643.24 696.936C643.24 696.556 643.393 696.245 643.58 696.245C643.767 696.245 643.92 695.863 643.92 695.395C643.92 694.928 644.073 694.545 644.26 694.545C644.447 694.545 644.6 694.308 644.6 694.019C644.6 693.73 644.983 693.139 645.45 692.705C645.953 692.239 646.3 691.543 646.3 690.998C646.3 690.062 646.975 689.106 647.635 689.106C647.836 689.106 648 688.57 648 687.916C648 687.262 648.153 686.726 648.34 686.726C648.527 686.726 648.68 686.344 648.68 685.876C648.68 685.409 648.833 685.026 649.02 685.026C649.207 685.026 649.36 684.644 649.36 684.176C649.36 683.648 649.553 683.326 649.87 683.326C650.153 683.326 650.38 683.024 650.38 682.646C650.38 682.273 650.533 681.967 650.72 681.967C650.907 681.967 651.06 681.6 651.06 681.153C651.06 680.705 651.29 680.251 651.57 680.143C651.851 680.036 652.08 679.637 652.08 679.258C652.08 678.878 652.233 678.567 652.42 678.567C652.607 678.567 652.76 678.031 652.76 677.377C652.76 676.723 652.913 676.187 653.1 676.187C653.287 676.187 653.44 675.805 653.44 675.337C653.44 674.808 653.633 674.487 653.95 674.487C654.233 674.487 654.46 674.185 654.46 673.807C654.46 673.433 654.613 673.127 654.8 673.127C654.987 673.127 655.14 672.592 655.14 671.937C655.14 671.283 655.293 670.747 655.48 670.747C655.667 670.747 655.82 670.365 655.82 669.898C655.82 669.369 656.013 669.048 656.33 669.048C656.686 669.048 656.84 668.689 656.84 667.858C656.84 667.203 656.993 666.668 657.18 666.668C657.367 666.668 657.52 666.285 657.52 665.818C657.52 665.35 657.673 664.968 657.86 664.968C658.047 664.968 658.2 664.586 658.2 664.118C658.2 663.589 658.393 663.268 658.71 663.268C659.066 663.268 659.22 662.909 659.22 662.078C659.22 661.424 659.373 660.888 659.56 660.888C659.747 660.888 659.9 660.353 659.9 659.698C659.9 659.044 660.053 658.509 660.24 658.509C660.427 658.509 660.58 658.219 660.58 657.865C660.58 657.511 660.81 657.133 661.09 657.025C661.41 656.903 661.6 656.383 661.6 655.63C661.6 654.969 661.753 654.429 661.94 654.429C662.127 654.429 662.28 653.91 662.28 653.276C662.28 652.563 662.476 652.047 662.79 651.926C663.088 651.812 663.3 651.302 663.3 650.7C663.3 650.133 663.453 649.669 663.64 649.669C663.827 649.669 663.98 648.981 663.98 648.139C663.98 647.298 664.133 646.61 664.32 646.61C664.507 646.61 664.66 646.074 664.66 645.42C664.66 644.588 664.814 644.23 665.17 644.23C665.526 644.23 665.68 643.871 665.68 643.04C665.68 642.385 665.833 641.85 666.02 641.85C666.207 641.85 666.36 641.315 666.36 640.66C666.36 640.006 666.513 639.47 666.7 639.47C666.889 639.47 667.04 638.563 667.04 637.43C667.04 635.844 667.153 635.391 667.55 635.391C667.906 635.391 668.06 635.032 668.06 634.201C668.06 633.546 668.213 633.011 668.4 633.011C668.587 633.011 668.74 632.246 668.74 631.311C668.74 630.376 668.893 629.611 669.08 629.611C669.267 629.611 669.42 628.786 669.42 627.778C669.42 626.461 669.564 625.889 669.93 625.748C670.279 625.615 670.44 625.068 670.44 624.013C670.44 623.165 670.593 622.472 670.78 622.472C670.968 622.472 671.12 621.578 671.12 620.468C671.12 618.93 671.248 618.415 671.674 618.253C672.103 618.088 672.188 617.737 672.049 616.703C671.934 615.848 672.036 615.147 672.334 614.755C672.617 614.381 672.803 613.247 672.809 611.848C672.815 610.551 672.968 609.553 673.16 609.553C673.354 609.553 673.5 608.545 673.5 607.21C673.5 605.44 673.625 604.818 674.01 604.67C674.401 604.52 674.52 603.876 674.52 601.914C674.52 600.434 674.664 599.354 674.86 599.354C675.066 599.354 675.2 597.881 675.2 595.614C675.2 593.347 675.334 591.874 675.54 591.874C675.747 591.874 675.88 590.356 675.88 588.001C675.88 584.872 675.978 584.09 676.39 583.932C676.808 583.771 676.9 582.913 676.9 579.156C676.9 576.469 677.04 574.489 677.24 574.366C677.449 574.237 677.58 571.416 677.58 567.036C677.58 562.517 677.704 559.917 677.92 559.917C678.135 559.917 678.26 557.537 678.26 553.458C678.26 547.942 678.335 546.998 678.77 546.998C679.214 546.998 679.28 545.41 679.28 534.748C679.28 524.173 679.21 522.472 678.77 522.303C678.345 522.14 678.26 521.175 678.26 516.534C678.26 513.045 678.133 510.961 677.92 510.961C677.709 510.961 677.58 509.148 677.58 506.202C677.58 503.255 677.451 501.442 677.24 501.442C677.042 501.442 676.9 500.309 676.9 498.722C676.9 496.531 676.801 496.002 676.39 496.002C675.993 496.002 675.88 495.549 675.88 493.963C675.88 492.83 675.729 491.923 675.54 491.923C675.345 491.923 675.2 490.903 675.2 489.543C675.2 488.183 675.055 487.163 674.86 487.163C674.673 487.163 674.52 486.47 674.52 485.622C674.52 484.567 674.359 484.02 674.01 483.887C673.696 483.766 673.5 483.249 673.5 482.537C673.5 481.903 673.347 481.384 673.16 481.384C672.973 481.384 672.82 480.848 672.82 480.194C672.82 479.539 672.667 479.004 672.48 479.004C672.293 479.004 672.14 478.54 672.14 477.973C672.14 477.371 671.928 476.861 671.63 476.747C671.35 476.639 671.12 476.186 671.12 475.738C671.12 475.291 670.967 474.924 670.78 474.924C670.593 474.924 670.44 474.389 670.44 473.734C670.44 472.903 670.286 472.544 669.93 472.544C669.613 472.544 669.42 472.223 669.42 471.695C669.42 471.227 669.267 470.845 669.08 470.845C668.893 470.845 668.74 470.539 668.74 470.165C668.74 469.791 668.587 469.485 668.4 469.485C668.213 469.485 668.06 469.255 668.06 468.975C668.06 468.694 667.831 468.465 667.55 468.465C667.267 468.465 667.04 468.162 667.04 467.785C667.04 467.411 666.887 467.105 666.7 467.105C666.513 467.105 666.36 466.788 666.36 466.4C666.36 465.648 665.624 464.725 665.025 464.725C664.824 464.725 664.66 464.496 664.66 464.215C664.66 463.935 664.507 463.705 664.32 463.705C664.133 463.705 663.975 463.438 663.969 463.11C663.958 462.475 663.213 461.325 662.813 461.325C662.32 461.325 661.6 460.331 661.6 459.65C661.6 459.263 661.436 458.946 661.235 458.946C660.839 458.946 659.9 458.108 659.9 457.756C659.9 457.472 658.994 456.566 658.71 456.566C658.426 456.566 657.52 455.66 657.52 455.376C657.52 455.092 656.614 454.186 656.33 454.186C656.046 454.186 655.14 453.28 655.14 452.996C655.14 452.583 654.168 451.806 653.651 451.806C653.366 451.806 652.613 451.271 651.977 450.616C651.341 449.962 650.492 449.426 650.091 449.426C649.656 449.426 649.36 449.212 649.36 448.896C649.36 448.605 649.207 448.461 649.02 448.577C648.833 448.692 648.68 448.561 648.68 448.285C648.68 448.009 648.489 447.694 648.255 447.585C647.915 447.427 647.915 447.347 648.255 447.189C648.489 447.079 648.68 446.838 648.68 446.654C648.68 446.206 649.558 445.347 650.015 445.347C650.216 445.347 650.38 445.21 650.38 445.043C650.38 444.875 650.76 444.378 651.224 443.938C651.688 443.497 652.071 442.964 652.074 442.752C652.077 442.539 652.386 442.286 652.76 442.188C653.167 442.082 653.44 441.724 653.44 441.299C653.44 440.893 653.659 440.587 653.95 440.587C654.231 440.587 654.463 440.396 654.468 440.162C654.471 439.929 655.007 439.28 655.658 438.721C656.308 438.162 656.84 437.469 656.84 437.181C656.84 436.893 657.146 436.437 657.52 436.168C657.894 435.898 658.2 435.482 658.2 435.243C658.2 435.003 658.43 434.808 658.71 434.808C658.993 434.808 659.22 434.505 659.22 434.128C659.22 433.754 659.373 433.448 659.56 433.448C659.747 433.448 659.9 433.218 659.9 432.938C659.9 432.657 660.053 432.428 660.24 432.428C660.427 432.428 660.58 432.051 660.58 431.589C660.58 430.982 660.722 430.804 661.09 430.945C661.413 431.069 661.6 430.941 661.6 430.595C661.6 430.294 661.753 430.048 661.94 430.048C662.127 430.048 662.28 429.666 662.28 429.198C662.28 428.731 662.444 428.348 662.645 428.348C663.244 428.348 663.98 427.425 663.98 426.673C663.98 426.285 664.133 425.968 664.32 425.968C664.507 425.968 664.66 425.662 664.66 425.289C664.66 424.911 664.887 424.609 665.17 424.609C665.451 424.609 665.68 424.379 665.68 424.099C665.68 423.818 665.833 423.589 666.02 423.589C666.207 423.589 666.36 423.292 666.36 422.929C666.36 422.566 666.513 422.174 666.7 422.059C666.887 421.943 667.04 421.551 667.04 421.188C667.04 420.826 667.27 420.529 667.55 420.529C667.854 420.529 668.06 420.216 668.06 419.754C668.06 419.328 668.366 418.759 668.74 418.489C669.114 418.22 669.42 417.65 669.42 417.224C669.42 416.798 669.584 416.449 669.785 416.449C670.384 416.449 671.12 415.526 671.12 414.774C671.12 414.386 671.294 414.069 671.508 414.069C672.004 414.069 672.795 413.033 672.809 412.365C672.815 412.082 673.203 411.564 673.67 411.213C674.138 410.862 674.52 410.29 674.52 409.942C674.52 409.595 674.673 409.31 674.86 409.31C675.047 409.31 675.2 409.08 675.2 408.8C675.2 408.519 675.353 408.29 675.54 408.29C675.727 408.29 675.88 407.984 675.88 407.61C675.88 407.233 676.107 406.93 676.39 406.93C676.671 406.93 676.9 406.735 676.9 406.495C676.9 406.256 677.206 405.84 677.58 405.57C677.954 405.301 678.26 404.731 678.26 404.306C678.26 403.879 678.424 403.53 678.625 403.53C679.224 403.53 679.96 402.607 679.96 401.855C679.96 401.468 680.113 401.151 680.3 401.151C680.487 401.151 680.64 400.861 680.64 400.507C680.64 400.153 680.87 399.775 681.15 399.667C681.431 399.56 681.66 399.161 681.66 398.782C681.66 398.394 681.436 398.091 681.15 398.091C680.833 398.091 680.64 397.77 680.64 397.241C680.64 396.618 680.459 396.391 679.96 396.391C679.586 396.391 679.28 396.238 679.28 396.051C679.28 395.864 678.898 395.711 678.43 395.711C677.882 395.711 677.58 395.52 677.58 395.174C677.58 394.754 677.357 394.686 676.56 394.861C675.798 395.029 675.487 394.949 675.333 394.548C675.178 394.143 674.636 394.011 673.123 394.011C672.014 394.011 671.12 393.859 671.12 393.671C671.12 393.484 670.448 393.331 669.627 393.331C668.613 393.331 668.07 393.167 667.937 392.821C667.803 392.472 667.257 392.311 666.201 392.311C665.354 392.311 664.66 392.158 664.66 391.971C664.66 391.777 663.64 391.631 662.28 391.631C660.92 391.631 659.9 391.486 659.9 391.291C659.9 391.104 659.228 390.951 658.407 390.951C657.393 390.951 656.85 390.787 656.717 390.441C656.576 390.073 655.999 389.932 654.641 389.932C653.607 389.932 652.76 389.779 652.76 389.592C652.76 389.388 651.457 389.252 649.53 389.252C647.603 389.252 646.3 389.115 646.3 388.912C646.3 388.705 644.77 388.572 642.39 388.572C640.01 388.572 638.48 388.705 638.48 388.912C638.48 389.108 637.403 389.252 635.93 389.252C634.457 389.252 633.38 389.395 633.38 389.592C633.38 389.779 632.692 389.932 631.85 389.932C630.717 389.932 630.32 390.064 630.32 390.441C630.32 390.798 629.961 390.951 629.13 390.951C628.476 390.951 627.94 391.104 627.94 391.291C627.94 391.478 627.261 391.631 626.43 391.631C625.6 391.631 624.826 391.784 624.71 391.971C624.594 392.158 623.82 392.311 622.99 392.311C621.874 392.311 621.48 392.445 621.48 392.821C621.48 393.177 621.121 393.331 620.29 393.331C619.636 393.331 619.1 393.476 619.1 393.653C619.1 393.829 618.373 394.021 617.485 394.077C616.416 394.146 615.899 394.325 615.955 394.606C616.002 394.84 615.811 395.031 615.53 395.031C615.108 395.031 615.02 394.389 615.02 391.291C615.02 389.025 614.886 387.552 614.68 387.552C614.493 387.552 614.34 386.863 614.34 386.022C614.34 384.889 614.207 384.492 613.83 384.492C613.445 384.492 613.32 384.076 613.32 382.792C613.32 381.857 613.167 381.092 612.98 381.092C612.793 381.092 612.64 380.786 612.64 380.412C612.64 380.038 612.487 379.732 612.3 379.732C612.113 379.732 611.96 379.35 611.96 378.882C611.96 378.415 611.796 378.033 611.595 378.033C610.996 378.033 610.26 377.11 610.26 376.357C610.26 375.97 610.107 375.653 609.92 375.653C609.733 375.653 609.58 375.368 609.58 375.02C609.58 374.673 609.198 374.101 608.73 373.75C608.263 373.399 607.88 372.919 607.88 372.682C607.88 372.446 607.692 372.291 607.463 372.338C607.234 372.385 606.993 372.079 606.93 371.658C606.865 371.237 606.67 370.893 606.496 370.893C606.322 370.893 606.18 370.729 606.18 370.529C606.18 370.132 605.343 369.193 604.99 369.193C604.706 369.193 603.8 368.287 603.8 368.003C603.8 367.72 602.894 366.814 602.61 366.814C602.326 366.814 601.42 365.907 601.42 365.624C601.42 365.271 600.481 364.434 600.085 364.434C599.884 364.434 599.72 364.274 599.72 364.078C599.72 363.617 598.157 362.054 597.695 362.054C597.5 362.054 597.34 361.89 597.34 361.689C597.34 361.293 596.503 360.354 596.15 360.354C595.866 360.354 594.96 359.448 594.96 359.164C594.96 358.88 594.054 357.974 593.77 357.974C593.417 357.974 592.58 357.035 592.58 356.639C592.58 356.438 592.271 356.274 591.894 356.274C591.518 356.274 590.549 355.586 589.743 354.745C588.936 353.903 588.038 353.215 587.744 353.215C587.452 353.215 587.121 352.976 587.009 352.683C586.897 352.391 586.65 352.247 586.463 352.363C586.274 352.479 586.12 352.402 586.12 352.191C586.12 351.573 585.208 350.835 584.445 350.835C584.057 350.835 583.74 350.671 583.74 350.47C583.74 349.92 582.841 349.135 582.21 349.135C581.579 349.135 580.68 348.35 580.68 347.8C580.68 347.599 580.332 347.435 579.905 347.435C579.479 347.435 578.909 347.129 578.64 346.755C578.371 346.381 577.801 346.075 577.375 346.075C576.913 346.075 576.6 345.87 576.6 345.565C576.6 345.285 576.371 345.055 576.09 345.055C575.81 345.055 575.58 344.902 575.58 344.715C575.58 344.528 575.343 344.375 575.054 344.375C574.764 344.375 574.173 343.993 573.74 343.526C573.306 343.058 572.702 342.676 572.396 342.676C572.09 342.676 571.84 342.523 571.84 342.336C571.84 342.149 571.458 341.996 570.99 341.996C570.523 341.996 570.14 341.821 570.14 341.608C570.14 341.085 569.09 340.32 568.355 340.307C568.028 340.301 567.76 340.143 567.76 339.956C567.76 339.769 567.378 339.616 566.91 339.616C566.443 339.616 566.06 339.452 566.06 339.251C566.06 338.652 565.137 337.916 564.385 337.916C563.997 337.916 563.68 337.763 563.68 337.576C563.68 337.389 563.298 337.236 562.83 337.236C562.301 337.236 561.98 337.043 561.98 336.726C561.98 336.443 561.677 336.216 561.3 336.216C560.926 336.216 560.62 336.063 560.62 335.876C560.62 335.689 560.238 335.536 559.77 335.536C559.303 335.536 558.92 335.383 558.92 335.196C558.92 335.009 558.538 334.856 558.07 334.856C557.541 334.856 557.22 334.663 557.22 334.346C557.22 334.066 556.923 333.836 556.56 333.836C556.197 333.836 555.806 333.683 555.69 333.496C555.574 333.309 555.183 333.156 554.82 333.156C554.457 333.156 554.16 333.006 554.16 332.823C554.16 332.64 553.778 332.393 553.31 332.276C552.843 332.159 552.46 331.927 552.46 331.76C552.46 331.593 552.078 331.457 551.61 331.457C551.143 331.457 550.76 331.304 550.76 331.117C550.76 330.93 550.47 330.777 550.117 330.777C549.762 330.777 549.378 330.529 549.262 330.228C549.118 329.851 548.779 329.731 548.179 329.846C547.626 329.951 547.241 329.841 547.127 329.545C547.028 329.288 546.581 329.077 546.133 329.077C545.686 329.077 545.32 328.924 545.32 328.737C545.32 328.55 544.938 328.397 544.47 328.397C543.941 328.397 543.62 328.204 543.62 327.887C543.62 327.57 543.299 327.377 542.77 327.377C542.303 327.377 541.92 327.224 541.92 327.037C541.92 326.85 541.385 326.697 540.73 326.697C540.076 326.697 539.54 326.544 539.54 326.357C539.54 326.17 539.25 326.017 538.897 326.017C538.542 326.017 538.165 325.788 538.057 325.507C537.95 325.227 537.55 324.997 537.171 324.997C536.791 324.997 536.48 324.844 536.48 324.657C536.48 324.47 535.945 324.317 535.29 324.317C534.636 324.317 534.1 324.164 534.1 323.977C534.1 323.79 533.718 323.637 533.25 323.637C532.721 323.637 532.4 323.444 532.4 323.127C532.4 322.771 532.041 322.617 531.21 322.617C530.556 322.617 530.02 322.464 530.02 322.277C530.02 322.09 529.654 321.937 529.207 321.937C528.759 321.937 528.298 321.691 528.182 321.389C528.034 321.002 527.675 320.885 526.956 320.991C526.264 321.093 525.94 320.996 525.94 320.689C525.94 320.441 525.643 320.237 525.28 320.237C524.917 320.237 524.526 320.085 524.41 319.898C524.294 319.711 523.673 319.558 523.03 319.558C522.241 319.558 521.86 319.399 521.86 319.071C521.86 318.742 521.505 318.593 520.773 318.614C520.175 318.631 519.627 318.468 519.555 318.251C519.483 318.034 519.13 317.858 518.772 317.858C518.413 317.858 518.12 317.705 518.12 317.518C518.12 317.331 517.601 317.178 516.967 317.178C516.254 317.178 515.737 316.982 515.617 316.668C515.504 316.373 514.995 316.158 514.411 316.158C513.855 316.158 513.306 316.005 513.19 315.818C513.074 315.631 512.453 315.478 511.81 315.478C511.166 315.478 510.64 315.325 510.64 315.138C510.64 314.951 510.35 314.798 509.997 314.798C509.642 314.798 509.265 314.568 509.157 314.288C509.023 313.939 508.477 313.778 507.421 313.778C506.574 313.778 505.88 313.625 505.88 313.438C505.88 313.251 505.574 313.098 505.2 313.098C504.826 313.098 504.52 312.945 504.52 312.758C504.52 312.571 504.001 312.418 503.367 312.418C502.654 312.418 502.137 312.223 502.017 311.908C501.883 311.559 501.337 311.398 500.281 311.398C499.434 311.398 498.74 311.245 498.74 311.058C498.74 310.871 498.205 310.718 497.55 310.718C496.676 310.718 496.36 310.571 496.36 310.164C496.36 309.72 496.123 309.648 495.17 309.803C494.272 309.948 493.98 309.875 493.98 309.507C493.98 309.176 493.598 309.018 492.79 309.018C492.136 309.018 491.6 308.865 491.6 308.678C491.6 308.491 491.081 308.339 490.447 308.339C489.734 308.339 489.217 308.143 489.097 307.829C488.983 307.53 488.473 307.319 487.871 307.319C487.304 307.319 486.84 307.166 486.84 306.979C486.84 306.792 486.075 306.639 485.14 306.639C484.205 306.639 483.44 306.486 483.44 306.299C483.44 306.112 482.752 305.959 481.91 305.959C480.777 305.959 480.38 305.826 480.38 305.449C480.38 305.093 480.021 304.939 479.19 304.939C478.536 304.939 478 304.786 478 304.599C478 304.412 477.235 304.259 476.3 304.259C475.365 304.259 474.6 304.106 474.6 303.919C474.6 303.732 474.065 303.579 473.41 303.579C472.579 303.579 472.22 303.425 472.22 303.069C472.22 302.692 471.823 302.559 470.69 302.559C469.849 302.559 469.16 302.406 469.16 302.219C469.16 302.032 468.395 301.879 467.46 301.879C466.525 301.879 465.76 301.735 465.76 301.56C465.76 301.384 465.072 301.138 464.23 301.011C463.389 300.885 462.7 300.647 462.7 300.481C462.7 300.315 461.782 300.179 460.66 300.179C459.527 300.179 458.62 300.028 458.62 299.839C458.62 299.652 457.948 299.499 457.127 299.499C456.067 299.499 455.572 299.34 455.422 298.951C455.253 298.509 454.917 298.448 453.686 298.632C452.432 298.82 452.16 298.767 452.16 298.331C452.16 297.908 451.743 297.799 450.12 297.799C448.987 297.799 448.08 297.648 448.08 297.459C448.08 297.272 447.255 297.119 446.247 297.119C444.93 297.119 444.358 296.976 444.217 296.61C444.076 296.241 443.499 296.1 442.141 296.1C441.107 296.1 440.26 295.947 440.26 295.76C440.26 295.565 439.24 295.42 437.88 295.42C436.52 295.42 435.5 295.274 435.5 295.08C435.5 294.886 434.492 294.74 433.157 294.74C431.387 294.74 430.765 294.615 430.617 294.23C430.465 293.835 429.804 293.72 427.691 293.72C426.097 293.72 424.96 293.578 424.96 293.38C424.96 293.175 423.543 293.04 421.39 293.04C419.237 293.04 417.82 292.905 417.82 292.7C417.82 292.488 415.837 292.36 412.55 292.36C408.093 292.36 407.28 292.282 407.28 291.85C407.28 291.405 405.41 291.34 392.49 291.34C379.57 291.34 377.7 291.405 377.7 291.85Z" fill="white"/>
</svg>
