<svg width="101" height="100" viewBox="0 0 101 100" fill="none" xmlns="http://www.w3.org/2000/svg">
<rect width="100" height="100" transform="translate(0.5)" fill="#1E1E1E"/>
<g clip-path="url(#clip0_2_18)">
<path d="M11.0128 30.9948C10.0841 27.3314 10.6258 25.404 11.0128 24.8982C13.0027 24.8982 14.4952 30.1397 14.9926 32.7604C15.9323 36.2639 24.4172 52.9538 28.176 59.078C31.183 63.9771 37.5914 71.4366 40.4197 74.5538C40.2999 72.871 39.8946 67.7235 39.2313 60.5952C38.4021 51.6846 39.0102 36.7604 39.2313 30.9948C39.4524 25.2293 41.8291 17.7533 43.46 18.5534C45.0906 19.3534 43.46 28.65 42.5201 36.7604C41.5805 44.8709 42.5201 57.6435 43.46 67.878C44.3996 78.1124 42.4098 79.023 41.0001 79.023C39.5906 79.023 36.7715 76.3193 35.1132 74.4435C33.4549 72.5677 23.8368 60.1263 21.4876 55.6571C19.1383 51.1882 12.1736 35.5742 11.0128 30.9948Z" fill="white"/>
<path d="M51.0881 55.7124C49.6509 51.2985 46.2146 35.7582 44.6761 28.5397C44.3076 27.8868 43.9687 26.4045 45.5607 25.6983C47.5505 24.8156 51.0881 43.3537 51.7238 46.3882C52.2325 48.8158 55.4736 59.8687 57.0303 65.0919L58.1358 63.8505V66.9677C58.1358 68.071 57.8044 68.623 56.2841 67.4366C54.7641 66.2505 52.8846 61.2296 51.0881 55.7124Z" fill="white"/>
<path d="M57.03 37.9744C56.6986 34.3771 56.5235 27.1881 56.4774 24.0432C55.5378 23.7857 54.0175 23.0667 55.4547 22.2501C57.2512 21.2294 57.8594 22.857 58.412 24.0432C58.9649 25.2294 60.1534 39.6296 60.5679 45.6434C60.9825 51.6574 62.6408 60.8988 63.6079 65.7816C64.2476 69.01 64.5914 69.9357 64.7332 70.0352C64.7557 70.0244 64.7771 70.0133 64.7965 70.0021C64.7839 70.0404 64.7629 70.0562 64.7332 70.0352C64.3783 70.2038 63.637 70.3144 63.0554 69.5885C62.2813 68.623 60.8441 63.5746 60.1534 60.4021C59.4625 57.2296 57.4449 42.471 57.03 37.9744Z" fill="white"/>
<path d="M64.2439 44.181C63.0279 38.4871 62.3369 28.8797 62.1436 24.7877C61.9595 23.9601 61.9005 22.2497 63.1385 22.029C64.3768 21.8083 64.7601 23.7762 64.7968 24.7877C65.1653 28.1992 66.0129 36.0264 66.4552 40.043C67.0078 45.0637 70.8772 57.3674 72.0379 60.6776C72.9667 63.326 73.8622 64.0432 74.1939 64.0707L72.7289 65.0363C72.4802 64.9167 71.6234 64.2529 70.1862 62.5535C68.3897 60.4293 65.7643 51.2982 64.2439 44.181Z" fill="white"/>
<path d="M72.6464 38.5538C71.6957 36.722 69.2836 31.4089 68.1967 28.9813C67.7544 27.3537 68.5559 26.6364 68.9979 26.3605C69.3519 26.1399 70.4169 27.2065 70.9049 27.7675L74.0005 33.9744L77.566 41.478C77.9437 40.2457 78.8206 37.3841 79.3071 35.7951C79.7936 34.2061 82.2551 26.1031 83.4251 22.2502C83.8582 21.1559 85.1388 18.9012 86.7971 18.6363C88.87 18.3053 88.5105 20.4295 88.1513 21.064C87.7921 21.6984 87.3222 21.5329 86.7971 21.726C86.272 21.9191 85.4152 25.7812 85.1663 26.6364C84.9176 27.4916 81.4353 42.2228 80.9102 44.209C80.3851 46.1952 80.4679 46.8021 80.689 47.7677C80.9102 48.7332 88.3446 60.816 88.9803 61.1197C89.489 61.3621 90.2056 61.0183 90.5006 60.816C90.2795 61.3034 89.5388 62.256 88.3446 62.1677C86.8524 62.0574 84.4753 59.216 83.5357 58.1955C82.7839 57.3788 80.256 53.3124 79.086 51.3816L77.4001 58.9677C75.9168 64.6872 72.9062 76.3197 72.7292 77.0922C72.5522 77.8644 72.2501 80.3564 72.121 81.5061C71.8631 81.2299 71.27 80.1322 70.9602 77.9471C70.5735 75.2163 72.6464 64.6783 72.8673 62.4988C73.0443 60.7555 75.447 50.9217 76.626 46.2228C75.6957 44.4297 73.5971 40.3855 72.6464 38.5538Z" fill="white"/>
</g>
<defs>
<clipPath id="clip0_2_18">
<rect width="80" height="63.0116" fill="white" transform="translate(10.5 18.4942)"/>
</clipPath>
</defs>
</svg>
