<svg width="542" height="243" viewBox="0 0 542 243" fill="none" xmlns="http://www.w3.org/2000/svg">
<path d="M273.409 152.882C273.085 125.647 257.532 98.2341 240.544 77.8337C213.125 44.9069 173.052 16.2265 130.728 6.89202C94.3653 -1.12689 59.7858 9.99222 34.3621 36.9363C8.71136 64.1223 -0.386477 104.546 6.50333 140.786C23.0611 227.857 128.056 249.747 202.032 229.738C237.766 220.075 273.887 193.116 273.409 152.882Z" fill="url(#paint0_linear_22_570)"/>
<path opacity="0.98" d="M318.989 104.207H296.329V124.279H316.685V128.738H296.329V149.114H318.989V153.573H290.952V99.743H318.989V104.202V104.207Z" fill="white"/>
<path opacity="0.98" d="M345.568 131.117L332.585 153.573H326.594L342.804 126.503L326.594 99.8204H332.585L346.181 122.199L359.318 99.8204H365.31L348.945 126.736L365.232 153.573H359.241L345.568 131.117Z" fill="white"/>
<path opacity="0.98" d="M390.738 130.658H379.906V153.573H374.528V99.8204H390.738C403.184 99.8204 408.866 106.432 408.866 115.278C408.866 124.124 403.334 130.658 390.738 130.658ZM390.738 126.044C399.802 126.044 403.339 121.889 403.339 115.278C403.339 108.666 399.807 104.357 390.738 104.357H379.906V126.044H390.738Z" fill="white"/>
<path opacity="0.98" d="M445.895 104.207H423.235V124.279H443.591V128.738H423.235V149.114H445.895V153.573H417.858V99.743H445.895V104.202V104.207Z" fill="white"/>
<path opacity="0.98" d="M472.633 99.8204C485.079 99.8204 490.916 106.587 490.916 115.433C490.916 122.813 486.766 129.043 477.702 130.735L491.53 153.573H485.075L471.783 131.117H461.873V153.573H456.496V99.8204H472.628H472.633ZM472.633 104.357H461.878V126.736H472.711C481.47 126.736 485.389 121.967 485.389 115.433C485.389 108.899 481.702 104.357 472.638 104.357H472.633Z" fill="white"/>
<path opacity="0.98" d="M497.752 99.8204H533.013V104.28H518.113V153.573H512.735V104.28H497.757V99.8204H497.752Z" fill="white"/>
<path opacity="0.98" d="M66.7529 89.4752C81.1316 89.4752 92.8191 97.1845 97.182 110.461H82.2477C79.1845 104.241 73.6185 101.175 66.6611 101.175C55.3455 101.175 47.272 109.44 47.272 122.624C47.272 135.809 55.3407 144.074 66.6611 144.074C73.6185 144.074 79.1845 141.008 82.2477 134.696H97.182C92.824 148.069 81.1316 155.682 66.7529 155.682C48.1079 155.682 33.9127 142.033 33.9127 122.624C33.9127 103.216 48.1079 89.4752 66.7529 89.4752Z" fill="white"/>
<path opacity="0.98" d="M136.236 155.126H108.314V90.307H135.033C148.575 90.307 156.088 97.3635 156.088 107.022C156.088 114.915 151.358 119.839 145.048 121.88C152.378 123.181 157.572 129.957 157.572 137.574C157.572 147.881 149.687 155.126 136.236 155.126ZM133.172 100.802H121.296V117.053H133.172C139.294 117.053 142.821 114.267 142.821 108.976C142.821 103.685 139.294 100.802 133.172 100.802ZM134.1 127.084H121.296V144.543H134.375C140.685 144.543 144.396 141.477 144.396 136.002C144.396 130.527 140.405 127.089 134.1 127.089V127.084Z" fill="white"/>
<path opacity="0.98" d="M223.339 90.2151V155.126H210.352L180.942 110.645V155.126H167.955V90.2151H180.942L210.352 134.788V90.2151H223.339Z" fill="white"/>
<defs>
<linearGradient id="paint0_linear_22_570" x1="224.552" y1="44.8827" x2="35.1237" y2="217.885" gradientUnits="userSpaceOnUse">
<stop stop-color="#8CE296"/>
<stop offset="0.5" stop-color="#0D857C"/>
<stop offset="1" stop-color="#032955"/>
</linearGradient>
</defs>
</svg>
