<svg width="451" height="111" viewBox="0 0 451 111" fill="none" xmlns="http://www.w3.org/2000/svg">
<g clip-path="url(#clip0_22_583)">
<path d="M371.692 54.8568C370.8 55.198 370.314 55.4669 369.79 55.5654C368.313 55.8475 366.824 56.0377 365.348 56.3198C364.836 56.4182 364.364 56.7725 363.852 56.8184C363.327 56.8644 362.783 56.6807 362.028 56.5626C361.694 56.2936 361.182 55.8803 360.598 55.4145C360.808 54.5353 361.235 53.6628 360.867 52.8099C361.372 51.8324 361.832 50.9336 362.337 49.956C363.176 49.8183 364.01 49.7067 364.823 49.5493C365.46 49.4246 366.076 49.3262 366.66 48.9326C367.375 48.4471 368.215 48.3552 368.91 48.7029C369.527 48.4996 370.124 48.0797 370.531 48.2175C371.384 48.5061 372.184 48.4077 373.011 48.3093C374.021 48.1912 375.018 47.8435 376.029 48.3618C376.245 48.4733 376.58 48.3487 376.862 48.3159C377.794 48.2043 378.758 47.8763 379.644 48.0272C380.49 48.1715 381.29 48.1387 382.124 48.1387C382.57 48.1387 383.016 48.2896 383.501 48.3815C384.033 48.1453 384.61 47.896 385.227 47.6204C385.745 47.9157 386.23 48.1847 386.716 48.4602C387.234 47.7845 388.107 47.5483 388.724 47.7845C389.596 48.1191 390.37 47.896 391.19 47.9026C391.551 47.9026 391.912 48.0206 392.391 48.0994C392.496 48.0272 392.719 47.8829 393.04 47.6664C393.841 47.9157 394.746 47.9747 395.671 47.7779C396.498 47.6008 397.338 47.5155 398.184 47.4368C399.102 47.3515 400.021 47.0497 400.933 47.5352C401.182 47.6664 401.654 47.3974 402.416 46.9053C403.511 47.5614 404.62 46.8397 405.866 46.9841C406.49 47.9091 407.507 46.9053 408.412 47.2793C409.239 47.627 410.196 47.6598 411.102 47.8304C411.436 48.2765 411.771 48.7095 412.171 49.2344C412.092 49.5099 412.001 49.8642 411.889 50.2513C412.007 50.4021 412.158 50.6055 412.315 50.8155C412.243 50.8811 412.171 50.9992 412.106 50.9926C411.568 50.9401 411.036 50.8417 410.498 50.7958C410.321 50.7761 410.105 50.8023 409.947 50.8876C409.219 51.2681 408.504 51.6683 407.743 52.0882C406.936 51.8848 406.07 51.6618 405.145 51.4322C404.633 51.9242 404.174 52.3703 403.695 52.823C403.249 52.8886 402.783 52.9608 402.291 53.033C401.615 52.8099 400.913 52.5803 400.126 52.3178C399.962 52.4163 399.739 52.5737 399.496 52.6721C399.076 52.8427 398.65 53.0461 398.21 53.1182C396.452 53.4069 394.687 53.6562 392.916 53.9186C392.555 53.794 392.207 53.6693 391.892 53.5578C389.471 53.7677 387.11 54.4632 384.459 54.2729C384.459 54.2729 384.236 54.4435 383.954 54.6665C383.632 54.5681 383.285 54.4632 382.74 54.2926C382.196 54.3713 381.461 54.4894 380.72 54.5944C379.88 54.7125 379.033 54.765 378.213 54.9487C377.538 55.0996 376.816 54.4435 376.193 55.0995C375.379 54.6009 374.546 55.0339 373.726 55.0602C372.998 55.0733 372.237 55.4407 371.692 54.8568Z" fill="white"/>
<path d="M317.246 96.9038C316.885 96.7332 316.642 96.6151 316.406 96.5036C316.091 96.8841 315.796 97.2449 315.5 97.6058C315.238 97.4877 314.995 97.3761 314.654 97.2187C314.024 97.6451 313.349 98.1044 312.673 98.5636C312.417 98.2093 312.155 97.8419 311.84 97.4089C312.017 96.8907 312.227 96.3002 312.351 95.9262C312.555 95.6638 312.601 95.572 312.673 95.5195C314.162 94.437 315.678 93.4135 316.885 91.9571C317.633 91.0517 318.722 90.435 319.673 89.7068C320.48 89.0901 321.359 88.5652 321.956 87.6992C322.159 87.404 322.461 87.1678 322.75 86.9513C324.292 85.777 325.748 84.5173 327.218 83.2577C328.615 82.0637 330.039 80.8893 331.443 79.6953C333.26 78.1404 335.189 76.7036 336.98 75.116C339.532 72.8525 342.301 70.845 344.748 68.4504C345.732 67.486 346.676 66.4691 347.72 65.5571C348.763 64.6452 349.662 63.5627 350.56 62.4933C351.236 61.6929 351.971 61.0434 353.034 60.7941C354.051 61.6273 354.903 62.5524 355.625 63.6874C355.54 64.4943 355.448 65.3931 355.31 66.7053C354.739 67.5975 353.952 68.8571 352.673 69.71C352.358 70.5038 351.19 70.5826 351.105 71.5667C350.449 72.0718 349.773 72.5508 349.15 73.0887C348.52 73.6333 347.949 74.2303 347.352 74.8076C347.149 75.0044 346.991 75.2537 346.755 75.3849C344.728 76.5199 343.16 78.2585 341.277 79.5772C340.3 80.266 339.381 81.014 338.581 81.9193C337.826 82.7788 336.816 83.2314 335.694 83.3299C335.438 83.8481 335.274 84.3927 334.94 84.7929C334.592 85.2062 334.067 85.4686 333.608 85.7966C333.457 85.731 333.286 85.6523 333.103 85.5736C332.735 85.8163 332.361 86.0591 331.915 86.3609C331.922 87.6599 330.813 88.1519 329.881 88.6833C329.265 89.031 328.431 88.8998 327.861 89.5231C327.369 90.061 326.752 90.4875 326.175 90.9861C325.23 91.1698 324.265 91.3863 323.655 92.2917C323.773 92.4426 323.891 92.5869 324.023 92.7575C323.445 93.3282 322.645 93.0986 322.002 93.3742C320.119 94.1877 318.938 95.9656 317.246 96.9038Z" fill="white"/>
<path d="M312.922 28.1485C312.765 27.7746 312.66 27.5121 312.542 27.23C312.319 27.0923 312.089 26.8364 311.84 26.8102C310.016 26.6002 309.058 25.4849 308.579 23.8251C308.559 23.7464 308.461 23.6873 308.395 23.6217C307.444 23.1821 307.444 23.1821 306.303 23.2609C305.45 22.6311 305.154 21.6207 304.59 20.8138C304.033 20.0068 303.521 19.1408 302.819 18.4519C302.963 18.2486 303.042 18.0255 303.18 17.9796C303.974 17.704 304.78 17.4678 305.496 17.2513C305.961 17.5334 306.329 17.7893 306.729 17.9796C307.057 18.137 307.569 18.0977 307.739 18.3338C308.212 18.9833 308.999 19.0293 309.563 19.4623C309.76 19.6132 309.819 19.9478 309.944 20.2102C312.063 20.7285 313.782 21.9947 315.507 23.3986C315.612 23.6545 315.756 23.9957 315.901 24.3302C317.449 24.468 318.636 25.3931 319.883 26.1672C320.428 26.5084 320.88 27.0201 321.458 27.2891C323.826 28.4175 325.722 30.2348 327.907 31.6322C328.851 32.8263 330.387 33.2527 331.397 34.3418C332.374 35.3915 333.68 35.936 334.861 36.6708C335.018 36.7692 335.202 36.8413 335.34 36.966C337.295 38.6783 339.414 40.1676 341.553 41.6372C342.301 42.1489 342.871 42.9296 343.58 43.6381C343.587 44.2876 343.593 45.0159 343.606 45.9803C343.272 47.2531 342.347 48.3749 340.989 49.3721C340.464 49.3393 339.827 49.2934 339.047 49.2409C338.915 48.9916 338.824 48.5783 338.568 48.3749C337.4 47.4761 336.501 46.269 335.255 45.462C334.789 45.1602 334.264 44.8912 333.91 44.4779C333.044 43.4807 332.046 42.6869 330.97 42.2867C330.701 41.7815 330.531 41.4535 330.478 41.3419C329.494 40.5678 328.687 39.9445 327.9 39.3081C326.326 38.0354 324.456 37.13 323.176 35.4899C321.786 34.9125 320.913 33.5676 319.489 33.0427C317.692 31.4551 315.461 30.4316 313.755 28.7062C313.493 28.4503 313.139 28.2929 312.922 28.1485Z" fill="white"/>
<path d="M358.84 99.1016C358.597 99.6724 358.387 100.178 358.184 100.65C357.456 100.991 356.885 100.794 356.216 100.027C356.091 99.4624 355.92 98.6555 355.73 97.7829C355.166 97.4942 354.615 97.2056 354.024 96.9038C354.129 96.4773 354.234 96.0443 354.339 95.6179C354.201 94.9815 353.545 94.8569 353.112 94.3058C352.968 93.3414 352.804 92.2326 352.627 91.0123C352.719 90.7171 352.857 90.2972 352.988 89.8839C352.358 89.6346 351.859 89.4444 351.302 89.2213C351.085 88.2962 350.869 87.3974 350.613 86.3084C350.259 85.777 349.799 85.0947 349.274 84.314C349.163 83.4151 348.743 82.5032 348.376 81.5519C347.031 78.042 345.883 74.4534 344.013 71.1665C343.79 69.1261 342.071 67.8534 341.33 66.0623C341.041 65.3538 340.162 64.888 339.604 64.3566C339.342 63.6218 339.099 62.9329 338.804 62.1063C339.545 60.1774 341.454 59.3902 343.291 58.5242C343.731 58.6619 344.17 58.8063 344.728 58.9834C345.469 60.0134 346.283 61.1353 347.083 62.2637C347.89 63.3987 348.467 64.7043 348.736 66.0033C348.973 67.1317 349.793 67.978 349.878 69.1064C351.072 70.5563 351.144 72.5442 352.233 74.0531C352.384 74.2631 352.424 74.5911 352.43 74.8667C352.463 76.7692 353.814 78.3241 353.854 80.2267C354.917 81.0861 354.372 82.5688 355.146 83.5332C355.868 84.432 355.389 85.8032 356.386 86.5774C356.596 87.778 356.793 88.9851 357.016 90.1791C357.167 90.9927 357.108 91.8652 357.77 92.5344C357.934 92.705 357.934 93.0593 357.974 93.3282C358.269 95.1915 358.538 97.0481 358.84 99.1016Z" fill="white"/>
<path d="M362.888 1.49274C363.544 1.74204 363.97 1.90605 364.397 2.07007C364.817 2.66709 364.659 3.27722 364.436 3.89392C364.554 4.03825 364.679 4.18259 364.797 4.32692C364.6 4.93706 364.403 5.55376 364.2 6.18358C364.292 6.29511 364.541 6.47225 364.515 6.57722C364.128 8.07304 364.548 9.68695 363.852 11.1172C363.57 11.7011 363.865 12.2128 363.865 12.7508C363.865 13.3018 363.413 13.7677 363.59 14.3778C363.688 14.7189 363.655 15.1191 363.583 15.4734C363.452 16.0835 363.236 16.674 363.058 17.2776C363.728 17.8615 362.934 18.4388 363.013 19.0686C363.078 19.6132 362.566 20.2364 362.278 20.899C362.763 21.765 362.114 22.6245 362.042 23.5364C361.937 24.9076 361.72 26.2787 361.176 27.5581C360.618 28.8505 360.848 30.2676 360.487 31.5994C359.955 33.5348 359.66 35.5292 359.201 37.4843C358.551 40.2463 357.2 42.6606 355.199 44.7666C354.129 44.924 353.027 45.088 351.709 45.2849C351.269 44.9699 350.744 44.596 350.285 44.268C350.6 42.7853 350.797 41.5781 351.413 40.3841C352.247 38.7833 352.994 37.1103 353.152 35.2012C353.257 33.9481 353.874 32.7278 354.32 31.5141C354.674 30.5563 354.963 29.6181 354.923 28.5553C354.897 27.9386 355.153 27.2956 355.35 26.6921C355.711 25.5505 356.117 24.4221 356.55 23.1362C356.701 23.0116 356.983 22.7885 357.357 22.4867C357.233 22.198 357.101 21.8766 356.911 21.4305C356.911 21.4239 356.924 21.2533 356.97 21.0959C357.108 20.6629 357.331 20.243 357.403 19.8034C357.528 19.0424 358.026 18.4716 358.295 17.7959C358.518 17.2382 358.473 16.569 358.61 15.434C358.591 15.2307 357.403 14.9223 358.23 13.6824C358.19 13.7152 358.466 13.4855 358.748 13.2494C358.63 13.105 358.512 12.9541 358.381 12.7901C358.623 12.1406 358.761 11.4649 359.116 10.8023C359.844 9.43765 360.592 8.00087 360.132 6.29511C360.408 5.84899 360.703 5.37662 361.005 4.87801C360.933 4.14978 360.854 3.415 360.782 2.69989C360.966 2.42434 361.123 2.18816 361.372 1.81421C361.773 1.73548 362.311 1.61739 362.888 1.49274Z" fill="white"/>
<path d="M108.47 63.1541C108.016 63.2797 107.726 63.3666 107.427 63.4535C107.446 64.033 107.465 64.5739 107.485 65.1147C107.166 65.2113 106.866 65.2982 106.451 65.4238C106.229 66.2834 105.988 67.2009 105.746 68.1281C105.254 68.0122 104.732 67.8963 104.124 67.7611C103.882 67.1719 103.612 66.4958 103.438 66.0709C103.419 65.6846 103.38 65.5687 103.409 65.4624C103.882 63.3666 104.423 61.3094 104.346 59.0977C104.297 57.7359 104.78 56.3451 105.06 54.9833C105.292 53.8243 105.659 52.6847 105.514 51.4678C105.466 51.0525 105.553 50.6178 105.63 50.1929C106.075 47.9812 106.384 45.7501 106.702 43.5191C107.002 41.3943 107.349 39.2695 107.649 37.1447C108.045 34.3825 108.624 31.6395 108.962 28.8773C109.455 24.9271 110.334 21.0446 110.624 17.0557C110.739 15.4525 110.788 13.8396 110.991 12.2363C111.193 10.6331 111.155 8.99117 111.116 7.3686C111.087 6.14201 111.232 5.01201 111.966 3.97858C113.502 3.92063 114.96 4.07516 116.467 4.51944C117.017 5.29209 117.626 6.15167 118.514 7.39757C118.698 8.6145 118.987 10.324 118.514 12.0625C118.852 12.9993 117.886 13.9651 118.572 14.8923C118.389 15.8388 118.167 16.7756 118.031 17.7318C117.896 18.688 117.857 19.6634 117.78 20.6196C117.751 20.9383 117.809 21.2957 117.703 21.5854C116.805 24.1448 116.766 26.8684 116.138 29.4761C115.81 30.8379 115.588 32.1901 115.588 33.6002C115.588 34.933 115.057 36.1016 114.139 37.0578C114.313 37.7049 114.593 38.3133 114.603 38.9218C114.612 39.5496 114.361 40.187 114.216 40.8245C114.033 40.8824 113.82 40.95 113.598 41.0176C113.463 41.5102 113.328 42.0124 113.164 42.6209C114.168 43.7509 113.579 45.0354 113.173 46.2234C112.903 47.0057 112.072 47.5272 112.053 48.5123C112.034 49.3623 111.831 50.2122 111.705 51.0911C111.019 51.9796 110.343 52.9165 110.508 54.172C110.73 54.2107 110.942 54.2493 111.184 54.2976C111.116 55.2344 110.237 55.6594 109.889 56.3934C108.895 58.5665 109.233 61.0293 108.47 63.1541Z" fill="white"/>
<path d="M43.847 98.5706C45.1412 97.5661 46.194 96.6003 47.7296 96.61C48.3381 96.0884 49.217 96.2043 49.8351 95.8373C52.9836 93.954 56.7503 93.4614 59.8313 91.4235C60.0727 91.269 60.4687 91.3656 60.9806 91.3269C61.7339 90.6122 62.6032 89.7913 63.202 89.2215C66.2057 87.4733 69.0258 86.1598 71.2859 83.8708C72.4931 82.6443 74.0095 81.746 75.2457 80.5098C76.5592 79.1866 77.6892 77.7476 78.7613 76.2505C79.4567 75.2847 80.1327 74.3093 80.9826 73.0923C81.002 72.9668 81.0599 72.5418 81.1179 72.1072C82.6245 70.3687 82.9433 68.0025 84.2181 66.1385C84.2761 64.0909 85.4061 62.2848 85.7248 60.4788C85.1163 59.7641 84.5562 59.6868 84.0636 59.9572C82.47 60.8554 80.8185 61.6184 79.08 62.2076C78.6743 62.3428 78.2687 62.5263 77.921 62.7581C77.0325 63.3569 76.0666 63.8978 75.3133 64.6511C74.56 65.4141 73.2271 64.6704 72.8601 65.8391C71.9426 65.7908 71.1796 65.7618 70.3104 65.7135C70.0496 65.4817 69.7502 65.1533 69.4025 64.9119C68.6299 64.3807 68.3401 63.5018 68.0407 62.7291C67.3067 60.7975 67.0363 58.75 67.3453 56.3741C67.6254 56.007 68.2435 55.4662 68.4946 54.7901C69.5667 51.912 71.6142 49.652 73.2561 47.1409C73.5555 46.6869 73.9032 46.2233 74.3378 45.9239C76.0956 44.6877 77.5347 43.0072 79.6981 42.1379C80.1038 42.1379 80.6543 42.1379 81.1661 42.1379C81.3786 42.2732 81.5911 42.3601 81.7456 42.5049C82.4603 43.181 83.1654 43.8667 83.8608 44.5718C84.4692 45.1996 85.2902 45.7597 85.5703 46.5131C85.918 47.4692 86.9321 47.8845 87.1252 48.9566C87.2218 49.4975 88.0331 49.8645 88.3905 50.4053C88.8927 51.149 89.8682 51.2166 90.3607 52.0376C90.7181 52.6364 91.4714 52.9937 92.1765 53.5539C92.2151 55.2151 92.2634 56.9439 92.2827 58.6824C92.302 60.4305 92.2827 62.1883 92.2827 63.8109C90.7277 66.1964 90.0613 68.8138 89.0086 71.2573C88.5836 72.2424 88.0814 73.1793 87.7047 74.1741C87.3667 75.0819 86.623 75.4682 85.86 75.8642C85.6282 76.3375 85.3868 76.8204 85.1453 77.313C85.2419 77.4578 85.3578 77.6413 85.4833 77.8345C84.6721 79.177 83.9574 80.616 82.4314 81.3404C82.1803 82.934 80.4611 83.1658 79.6691 84.3055C78.9351 85.3679 77.9114 86.2274 77.0035 87.1643C76.9455 87.2319 76.8296 87.2415 76.7331 87.2802C76.5496 87.1643 76.3564 87.058 75.8928 86.778C75.3036 87.4637 74.4054 88.1108 74.106 88.9703C73.7583 89.9844 72.4255 89.9941 72.3289 91.1338C71.5273 91.6746 70.32 91.0179 69.6343 91.9547C68.5043 92.0513 67.4516 92.2541 67.1811 93.6063C66.4085 94.1664 65.6262 94.7266 64.8052 95.3158C64.2257 95.3544 63.5883 95.3834 62.9509 95.422C62.777 95.76 62.6225 96.0498 62.4873 96.3202C61.5118 96.7162 60.488 97.0252 59.5705 97.5275C58.6433 98.049 57.5133 97.9621 56.6731 98.87C55.9873 99.604 54.809 99.8841 53.8239 100.377C53.4762 100.241 53.0899 100.087 52.6359 99.9034C52.1241 100.328 51.6218 100.744 51.052 101.217C50.4822 101.217 49.8447 101.217 49.2652 101.217C48.6954 101.69 48.1932 102.105 47.7103 102.511C47.1308 102.54 46.5803 102.579 45.9815 102.608C45.5951 102.917 45.1798 103.274 44.7356 103.593C44.5714 103.709 44.3396 103.747 44.1464 103.815C42.7267 104.259 41.3262 104.935 39.8775 105.08C38.4674 105.215 37.3181 106.577 35.9949 105.698C34.8939 106.229 34.0343 106.654 32.9816 107.166C32.1896 107.166 31.2045 107.166 30.258 107.166C29.7847 107.553 29.3598 107.891 28.8286 108.335C27.5923 108.576 26.0857 108.065 24.8591 109.03C23.8836 109.04 22.8985 109.088 21.923 109.04C21.3145 109.011 20.7157 108.741 20.1169 108.75C19.605 108.76 19.0932 109.021 18.3012 109.252C18.0308 109.465 17.5189 109.871 16.9104 110.354C15.5969 110.354 14.1868 110.354 12.7091 110.354C11.7143 109.861 10.6616 109.339 9.64748 108.847C9.81167 108.422 9.9662 108.026 10.1787 107.495C9.50261 107.263 8.93278 107.07 8.34363 106.867C11.4922 105.64 11.4922 105.64 13.3466 106.394C14.0806 106.355 14.4186 105.708 15.0367 105.293C16.2923 105.042 17.6638 104.549 19.0159 104.568C20.4646 104.588 21.7009 103.699 23.1206 103.854C24.3762 103.023 25.8152 103.235 27.206 103.1C28.0366 103.013 28.9638 102.791 29.6109 102.318C30.4994 101.671 31.6005 102.27 32.3924 101.584C33.1265 100.946 34.0923 101.439 34.8843 101.033C35.8404 100.55 36.7193 99.8744 37.8783 99.9034C38.9697 99.9324 39.8968 99.2756 40.9979 99.1404C41.8574 99.0631 42.746 98.5126 43.847 98.5706ZM83.1557 53.0034C82.5859 51.5836 82.1223 50.5212 81.7456 49.4299C81.5814 48.9663 81.3883 48.6765 80.8378 48.7151C78.713 50.3957 77.1484 52.5688 75.9218 54.9833C75.8155 55.1958 76.0087 55.5531 76.0956 56.0167C78.4522 55.0026 80.6929 54.0561 83.1557 53.0034Z" fill="white"/>
<path d="M218.679 48.5317C219.838 49.1981 221.19 49.9031 222.214 51.3325C222.185 52.366 222.967 53.3414 223.044 54.568C223.112 55.7173 223.566 56.8473 223.885 58.0932C225.372 57.7456 226.734 56.915 228.018 56.1037C229.477 55.1765 231.109 54.5294 232.471 53.5249C233.794 52.5398 235.561 52.4336 236.547 51.1394C236.981 51.1394 237.31 51.1394 237.744 51.1394C238.391 51.7865 239.135 52.4336 239.763 53.1772C240.168 53.6602 240.41 54.2976 240.796 55.0026C240.796 55.9588 240.69 57.0598 240.825 58.1415C240.96 59.1846 241.337 60.1987 241.646 61.3674C244.186 59.7351 247.103 58.8273 249.836 57.4848C251.845 56.4997 254.028 55.9008 256.114 55.0799C257.215 54.6453 258.248 54.0755 259.33 53.6312C260.518 53.1386 261.561 52.3177 262.962 52.3853C263.338 52.4046 263.725 52.0376 264.121 51.8734C266.303 51.0042 268.457 50.1253 270.794 49.71C272.002 49.4975 273.286 49.1691 274.271 48.1936C274.706 47.759 275.401 47.5852 276.28 47.1312C276.618 47.1312 277.275 47.2085 277.912 47.1119C278.521 47.025 279.11 46.7546 279.796 46.5421C279.989 46.8705 280.192 47.2182 280.395 47.5562C280.829 48.1164 282.094 47.363 282.075 48.7828C281.399 49.1208 280.655 49.4878 279.979 49.8355C279.187 49.5844 278.511 49.3719 277.652 49.0918C277.903 49.7776 278.077 50.2219 278.241 50.6758C277.999 50.9559 277.845 51.3422 277.574 51.4388C275.517 52.2018 274.522 54.5487 272.176 54.9447C271.934 54.8288 271.644 54.6839 271.335 54.5294C270.949 54.8674 270.553 55.2248 270.051 55.6594C269.51 55.6884 268.863 55.7173 268.216 55.7463C267.781 56.3355 267.356 56.9246 266.873 57.5814C265.985 57.5814 265.125 57.5814 264.478 57.5814C262.401 58.9915 260.547 60.247 258.567 61.5895C256.8 61.5122 255.283 62.6036 253.68 63.4439C253.12 63.7336 252.511 64.0427 252.077 64.487C251.362 65.2403 250.493 65.5204 249.527 65.7618C247.499 66.264 245.838 67.423 244.35 68.8428C242.94 70.2046 241.26 71.1511 239.608 72.0879C237.406 70.4557 237.261 70.2432 235.436 66.0612C235.436 64.458 235.436 62.507 235.436 60.5271C235.001 60.4112 234.711 60.3243 234.248 60.1987C233.881 60.4885 233.485 60.8362 233.05 61.1356C232.606 61.435 232.133 61.6764 231.679 61.9372C231.602 62.3911 231.524 62.8064 231.457 63.2314C230.452 63.8978 229.438 64.5256 228.241 64.1972C226.55 65.559 224.957 66.8532 223.373 68.1281C222.697 68.1281 222.05 68.1281 221.229 68.1281C220.62 67.452 219.963 66.7276 219.297 65.9936C218.804 64.458 218.399 62.9416 218.409 61.2804C218.409 60.305 217.761 59.3198 217.423 58.383C216.197 58.2961 216.738 59.3005 216.757 59.2715C215.849 60.7975 214.651 61.3674 214.323 62.6133C214.246 62.8934 213.956 63.2604 213.686 63.3376C211.947 63.8302 211.638 65.4238 210.962 66.7373C210.721 67.2106 210.479 67.7031 210.189 68.2923C209.523 68.6593 208.77 69.0649 208.084 69.4416C207.785 69.3547 207.543 69.345 207.389 69.2291C206.133 68.3019 205.331 67.027 204.636 65.6266C204.636 64.0137 204.636 62.3718 204.636 60.8072C204.858 60.4595 205.042 60.1794 205.273 59.8124C205.273 58.9239 205.273 57.9484 205.273 57.0502C205.737 56.0844 206.384 55.2538 206.529 54.3459C206.751 53.0034 207.727 52.0569 208.055 50.811C209.214 49.8355 209.368 48.3675 209.851 47.0829C210.296 45.895 210.218 45.866 211.416 44.736C213.319 45.6825 213.319 45.6825 214.632 47.8653C214.632 48.7538 214.632 49.8355 214.632 51.0525C215.386 50.5502 215.946 50.0673 216.593 49.7679C217.23 49.4395 217.124 48.2033 218.679 48.5317Z" fill="white"/>
<path d="M192.901 69.0456C192.737 69.3547 192.592 69.6444 192.476 69.8666C191.752 69.7024 191.037 69.5768 190.342 69.374C188.507 68.8428 187.503 67.1043 185.861 66.2254C184.962 65.7522 184.335 64.7477 183.89 63.7047C183.562 62.932 182.973 62.2656 182.471 61.5123C180.143 62.5167 178.347 64.1006 176.879 65.9454C176.135 66.8822 175.208 67.5293 174.387 68.3406C174 68.7269 173.575 69.0746 173.131 69.4706C170.958 69.4706 168.766 69.4706 166.399 69.4706C163.347 68.6207 162.304 65.8488 161.145 63.0189C161.145 62.0821 161.136 61.0004 161.145 59.909C161.155 59.4164 161.947 56.6832 162.169 56.2486C163.232 54.1045 164.854 52.3467 166.206 50.4054C166.612 49.8259 167.414 49.5361 167.993 49.0629C168.495 48.6573 168.949 48.184 169.374 47.788C169.809 47.759 170.137 47.7494 170.369 47.7301C171.557 46.8608 172.697 46.0399 173.788 45.2479C174.976 45.2479 176.058 45.2479 177.207 45.2479C179.332 47.0733 181.167 49.2174 182.847 51.5161C183.301 51.6126 183.717 51.6996 184.151 51.7962C185.349 52.8103 186.324 54.0369 187.348 55.4663C187.338 57.1564 187.474 58.9722 188.517 61.0197C189.193 61.9082 190.284 62.932 192.187 63.5501C192.747 63.5501 193.732 63.5501 194.814 63.5501C195.287 63.9268 195.789 64.3324 196.407 64.8153C196.919 64.8733 197.557 64.9506 198.281 65.0375C198.358 65.2983 198.513 65.5977 198.503 65.8874C198.493 66.1965 198.436 66.6311 198.233 66.776C197.325 67.4037 197.441 68.5144 196.929 69.3933C195.577 69.5768 194.215 69.5961 192.901 69.0456ZM167.752 61.3481C169.49 62.0531 170.649 61.2225 171.779 60.4306C173.006 59.571 174.116 58.5086 175.401 57.7649C176.473 57.1468 177.226 56.2872 178.105 55.4663C178.105 54.568 178.105 53.7181 178.105 52.8296C177.41 51.7479 176.405 51.0235 175.063 50.6565C173.875 52.2597 172.764 53.9692 171.431 55.4856C170.108 56.9922 169.442 59.0011 167.742 60.2084C167.752 60.5271 167.752 60.8458 167.752 61.3481Z" fill="white"/>
<path d="M152.115 63.1735C152.144 63.6564 152.907 63.9944 152.385 64.5835C150.869 65.1244 149.382 65.7908 147.807 65.5397C147.199 66.0226 146.687 66.4283 146.127 66.8629C145.712 66.8629 145.277 66.8532 144.833 66.8629C143.848 66.8822 142.718 66.6118 141.916 67.0078C140.969 67.481 139.907 67.2299 139.125 67.6742C137.956 68.3502 136.787 68.0315 135.909 68.1281C133.658 67.9156 132.258 66.3317 130.336 65.9647C129.718 65.8488 129.129 65.559 128.327 65.2886C127.284 64.3035 126.086 63.1831 125.062 62.2173C124.966 61.2611 124.898 60.614 124.84 60.0152C124.473 59.5517 124.135 59.1267 123.778 58.6728C123.778 57.8228 123.759 56.9536 123.797 56.094C123.807 55.9009 124 55.7174 124.116 55.5242C123.971 54.7322 123.237 53.9886 123.913 53.1386C124.444 52.4819 124.299 51.6899 124.377 50.9462C125.526 48.918 127.39 47.2858 127.718 44.9872C129.264 43.5964 130.732 42.3215 132.142 40.9887C133.195 39.9939 134.305 39.2695 135.841 39.2502C136.44 39.2405 137.048 38.8542 137.686 38.6321C139.357 38.9508 140.931 39.5689 142.698 41.2494C142.853 41.4716 143.403 42.2636 144.002 43.1038C143.693 44.5815 145.19 45.866 144.504 47.5949C144.263 47.8846 143.906 48.2902 143.5 48.7635C144.186 49.5651 143.915 50.5309 143.973 51.3326C141.984 53.9209 139.53 55.6498 136.787 57.0405C135.474 57.7069 134.276 58.5858 133.001 59.3875C133.214 59.6096 133.436 59.8414 133.774 60.2084C135.397 60.3726 137.135 60.334 138.883 60.3436C140.091 60.3436 141.298 60.3629 142.495 60.2664C143.114 60.2181 143.77 59.7062 144.311 59.8317C144.852 59.9573 145.238 60.1215 145.741 59.7641C146.31 59.3585 146.764 60.3823 147.498 59.938C148.001 59.6289 148.754 59.7255 149.285 59.6482C150.512 60.3146 151.864 60.6044 152.231 62.1111C152.279 62.3042 152.772 62.3912 153.168 62.5747C152.772 62.7871 152.443 62.9803 152.115 63.1735ZM138.7 47.5852C138.449 46.2717 139.975 45.3735 139.183 44.06C138.719 43.7799 138.227 43.8088 137.695 44.031C136.266 44.6395 135.097 45.528 134.46 46.996C133.996 47.2568 133.349 46.9767 132.924 47.5852C132.895 48.1454 132.866 48.7925 132.837 49.4106C132.325 50.0287 131.91 50.6372 132.47 51.6609C133.629 50.502 135.049 49.8838 136.633 49.5361C137.261 48.9567 137.889 48.3579 138.7 47.5852Z" fill="white"/>
</g>
<defs>
<clipPath id="clip0_22_583">
<rect width="450.42" height="110.152" fill="white"/>
</clipPath>
</defs>
</svg>
